<svg xmlns="http://www.w3.org/2000/svg" xmlns:xlink="http://www.w3.org/1999/xlink" width="1080" zoomAndPan="magnify" viewBox="0 0 810 809.999993" height="1080" preserveAspectRatio="xMidYMid meet" version="1.0"><defs><g/><clipPath id="b2c1d9f184"><path d="M 0 0 L 810 0 L 810 810 L 0 810 Z M 0 0 " clip-rule="nonzero"/></clipPath><clipPath id="6c51bfb763"><rect x="0" width="810" y="0" height="810"/></clipPath><clipPath id="84e0489869"><path d="M 0 330.285156 L 810 330.285156 L 810 810 L 0 810 Z M 0 330.285156 " clip-rule="nonzero"/></clipPath><clipPath id="9a06a28dac"><path d="M 405 330.285156 L 810 810 L 0 810 Z M 405 330.285156 " clip-rule="nonzero"/></clipPath><clipPath id="7225df761f"><path d="M 0 0.285156 L 810 0.285156 L 810 480 L 0 480 Z M 0 0.285156 " clip-rule="nonzero"/></clipPath><clipPath id="cc6501756f"><path d="M 405 0.285156 L 810 480 L 0 480 Z M 405 0.285156 " clip-rule="nonzero"/></clipPath><clipPath id="82ac4664da"><rect x="0" width="810" y="0" height="480"/></clipPath><clipPath id="c9fbd64bf6"><path d="M 227 104 L 588 104 L 588 448.460938 L 227 448.460938 Z M 227 104 " clip-rule="nonzero"/></clipPath><clipPath id="7f13204717"><path d="M 74 175 L 192 175 L 192 228 L 74 228 Z M 74 175 " clip-rule="nonzero"/></clipPath><clipPath id="b4ede8e238"><path d="M 78.214844 173.585938 L 194.015625 212.523438 L 188.328125 229.441406 L 72.527344 190.507812 Z M 78.214844 173.585938 " clip-rule="nonzero"/></clipPath><clipPath id="471c773300"><path d="M 86.675781 176.429688 L 185.5 209.660156 C 187.742188 210.414062 189.59375 212.027344 190.648438 214.148438 C 191.703125 216.269531 191.871094 218.71875 191.117188 220.964844 C 190.359375 223.207031 188.746094 225.058594 186.625 226.113281 C 184.503906 227.164062 182.054688 227.332031 179.808594 226.578125 L 80.988281 193.351562 C 78.742188 192.597656 76.890625 190.984375 75.839844 188.863281 C 74.785156 186.742188 74.617188 184.289062 75.371094 182.046875 C 76.125 179.804688 77.742188 177.949219 79.859375 176.898438 C 81.980469 175.84375 84.433594 175.675781 86.675781 176.429688 Z M 86.675781 176.429688 " clip-rule="nonzero"/></clipPath><clipPath id="ed7166c4f0"><path d="M 0.398438 0.441406 L 118 0.441406 L 118 52.519531 L 0.398438 52.519531 Z M 0.398438 0.441406 " clip-rule="nonzero"/></clipPath><clipPath id="6b121f63bc"><path d="M 4.214844 -1.414062 L 120.015625 37.523438 L 114.328125 54.441406 L -1.472656 15.507812 Z M 4.214844 -1.414062 " clip-rule="nonzero"/></clipPath><clipPath id="a7b502375d"><path d="M 12.675781 1.429688 L 111.5 34.660156 C 113.742188 35.414062 115.59375 37.027344 116.648438 39.148438 C 117.703125 41.269531 117.871094 43.71875 117.117188 45.964844 C 116.359375 48.207031 114.746094 50.058594 112.625 51.113281 C 110.503906 52.164062 108.054688 52.332031 105.808594 51.578125 L 6.988281 18.351562 C 4.742188 17.597656 2.890625 15.984375 1.839844 13.863281 C 0.785156 11.742188 0.617188 9.289062 1.371094 7.046875 C 2.125 4.804688 3.742188 2.949219 5.859375 1.898438 C 7.980469 0.84375 10.433594 0.675781 12.675781 1.429688 Z M 12.675781 1.429688 " clip-rule="nonzero"/></clipPath><clipPath id="aa3db5ca96"><rect x="0" width="118" y="0" height="53"/></clipPath><clipPath id="d32dd9b71c"><path d="M 638 198 L 758 198 L 758 239 L 638 239 Z M 638 198 " clip-rule="nonzero"/></clipPath><clipPath id="ab3b67dd6f"><path d="M 636.804688 222.886719 L 755.070312 196.5 L 758.925781 213.78125 L 640.664062 240.167969 Z M 636.804688 222.886719 " clip-rule="nonzero"/></clipPath><clipPath id="382b75aefa"><path d="M 645.445312 220.960938 L 746.371094 198.441406 C 748.664062 197.929688 751.066406 198.347656 753.046875 199.609375 C 755.027344 200.867188 756.429688 202.863281 756.941406 205.152344 C 757.453125 207.445312 757.03125 209.84375 755.773438 211.828125 C 754.515625 213.808594 752.519531 215.210938 750.226562 215.722656 L 649.300781 238.238281 C 647.011719 238.75 644.609375 238.332031 642.628906 237.074219 C 640.644531 235.8125 639.246094 233.820312 638.734375 231.527344 C 638.222656 229.234375 638.644531 226.835938 639.902344 224.855469 C 641.160156 222.871094 643.15625 221.472656 645.445312 220.960938 Z M 645.445312 220.960938 " clip-rule="nonzero"/></clipPath><clipPath id="51de249295"><path d="M 0.160156 0 L 119.679688 0 L 119.679688 40.800781 L 0.160156 40.800781 Z M 0.160156 0 " clip-rule="nonzero"/></clipPath><clipPath id="696c007a89"><path d="M -1.195312 24.886719 L 117.070312 -1.5 L 120.925781 15.78125 L 2.664062 42.167969 Z M -1.195312 24.886719 " clip-rule="nonzero"/></clipPath><clipPath id="ddd3e5e883"><path d="M 7.445312 22.960938 L 108.371094 0.441406 C 110.664062 -0.0703125 113.066406 0.347656 115.046875 1.609375 C 117.027344 2.867188 118.429688 4.863281 118.941406 7.152344 C 119.453125 9.445312 119.03125 11.84375 117.773438 13.828125 C 116.515625 15.808594 114.519531 17.210938 112.226562 17.722656 L 11.300781 40.238281 C 9.011719 40.75 6.609375 40.332031 4.628906 39.074219 C 2.644531 37.8125 1.246094 35.820312 0.734375 33.527344 C 0.222656 31.234375 0.644531 28.835938 1.902344 26.855469 C 3.160156 24.871094 5.15625 23.472656 7.445312 22.960938 Z M 7.445312 22.960938 " clip-rule="nonzero"/></clipPath><clipPath id="ec16e925bc"><rect x="0" width="120" y="0" height="41"/></clipPath><clipPath id="784a8add29"><path d="M 145 345 L 245 345 L 245 429 L 145 429 Z M 145 345 " clip-rule="nonzero"/></clipPath><clipPath id="91882962d4"><path d="M 141.398438 417.664062 L 237.097656 341.71875 L 248.195312 355.703125 L 152.496094 431.648438 Z M 141.398438 417.664062 " clip-rule="nonzero"/></clipPath><clipPath id="c7b913677f"><path d="M 148.390625 412.113281 L 230.058594 347.304688 C 231.914062 345.832031 234.277344 345.160156 236.628906 345.429688 C 238.980469 345.699219 241.128906 346.894531 242.597656 348.746094 C 244.070312 350.601562 244.746094 352.964844 244.476562 355.316406 C 244.203125 357.667969 243.011719 359.816406 241.15625 361.289062 L 159.488281 426.097656 C 157.632812 427.570312 155.269531 428.246094 152.917969 427.972656 C 150.566406 427.703125 148.417969 426.507812 146.949219 424.65625 C 145.476562 422.800781 144.800781 420.4375 145.074219 418.085938 C 145.34375 415.734375 146.535156 413.585938 148.390625 412.113281 Z M 148.390625 412.113281 " clip-rule="nonzero"/></clipPath><clipPath id="68b57192c1"><path d="M 0 0.121094 L 99.800781 0.121094 L 99.800781 83.398438 L 0 83.398438 Z M 0 0.121094 " clip-rule="nonzero"/></clipPath><clipPath id="a3182f14bc"><path d="M -3.601562 72.664062 L 92.097656 -3.28125 L 103.195312 10.703125 L 7.496094 86.648438 Z M -3.601562 72.664062 " clip-rule="nonzero"/></clipPath><clipPath id="0aef364694"><path d="M 3.390625 67.113281 L 85.058594 2.304688 C 86.914062 0.832031 89.277344 0.160156 91.628906 0.429688 C 93.980469 0.699219 96.128906 1.894531 97.597656 3.746094 C 99.070312 5.601562 99.746094 7.964844 99.476562 10.316406 C 99.203125 12.667969 98.011719 14.816406 96.15625 16.289062 L 14.488281 81.097656 C 12.632812 82.570312 10.269531 83.246094 7.917969 82.972656 C 5.566406 82.703125 3.417969 81.507812 1.949219 79.65625 C 0.476562 77.800781 -0.199219 75.4375 0.0742188 73.085938 C 0.34375 70.734375 1.535156 68.585938 3.390625 67.113281 Z M 3.390625 67.113281 " clip-rule="nonzero"/></clipPath><clipPath id="b751678e5f"><rect x="0" width="100" y="0" height="84"/></clipPath><clipPath id="1329aac0da"><path d="M 227 51 L 310 51 L 310 152 L 227 152 Z M 227 51 " clip-rule="nonzero"/></clipPath><clipPath id="ac69a0646e"><path d="M 238.476562 47.917969 L 313.554688 144.296875 L 299.472656 155.269531 L 224.394531 58.890625 Z M 238.476562 47.917969 " clip-rule="nonzero"/></clipPath><clipPath id="87ff759f0a"><path d="M 243.960938 54.960938 L 308.035156 137.210938 C 309.488281 139.078125 310.140625 141.445312 309.851562 143.796875 C 309.558594 146.144531 308.34375 148.28125 306.476562 149.734375 C 304.609375 151.191406 302.242188 151.84375 299.890625 151.550781 C 297.542969 151.261719 295.40625 150.046875 293.949219 148.179688 L 229.878906 65.929688 C 228.421875 64.0625 227.769531 61.695312 228.0625 59.347656 C 228.355469 56.996094 229.566406 54.859375 231.433594 53.40625 C 233.300781 51.949219 235.671875 51.296875 238.019531 51.589844 C 240.371094 51.878906 242.507812 53.09375 243.960938 54.960938 Z M 243.960938 54.960938 " clip-rule="nonzero"/></clipPath><clipPath id="709bcb944c"><path d="M 0.761719 0.121094 L 83 0.121094 L 83 100.921875 L 0.761719 100.921875 Z M 0.761719 0.121094 " clip-rule="nonzero"/></clipPath><clipPath id="986d4f02a2"><path d="M 11.476562 -3.082031 L 86.554688 93.296875 L 72.472656 104.269531 L -2.605469 7.890625 Z M 11.476562 -3.082031 " clip-rule="nonzero"/></clipPath><clipPath id="bff8427f1b"><path d="M 16.960938 3.960938 L 81.035156 86.210938 C 82.488281 88.078125 83.140625 90.445312 82.851562 92.796875 C 82.558594 95.144531 81.34375 97.28125 79.476562 98.734375 C 77.609375 100.191406 75.242188 100.84375 72.890625 100.550781 C 70.542969 100.261719 68.40625 99.046875 66.949219 97.179688 L 2.878906 14.929688 C 1.421875 13.0625 0.769531 10.695312 1.0625 8.347656 C 1.355469 5.996094 2.566406 3.859375 4.433594 2.40625 C 6.300781 0.949219 8.671875 0.296875 11.019531 0.589844 C 13.371094 0.878906 15.507812 2.09375 16.960938 3.960938 Z M 16.960938 3.960938 " clip-rule="nonzero"/></clipPath><clipPath id="d6cc4e8b70"><rect x="0" width="83" y="0" height="101"/></clipPath><clipPath id="5c146e10d7"><path d="M 593 356 L 688 356 L 688 446 L 593 446 Z M 593 356 " clip-rule="nonzero"/></clipPath><clipPath id="8f1b31d69b"><path d="M 601.75 352.582031 L 690.738281 436.289062 L 678.507812 449.292969 L 589.515625 365.585938 Z M 601.75 352.582031 " clip-rule="nonzero"/></clipPath><clipPath id="5c3b9f35f5"><path d="M 608.25 358.699219 L 684.191406 430.132812 C 685.917969 431.753906 686.925781 433.996094 687 436.363281 C 687.070312 438.726562 686.199219 441.027344 684.578125 442.75 C 682.957031 444.472656 680.714844 445.484375 678.351562 445.554688 C 675.984375 445.628906 673.6875 444.757812 671.960938 443.136719 L 596.019531 371.703125 C 594.292969 370.082031 593.285156 367.839844 593.210938 365.472656 C 593.140625 363.109375 594.011719 360.808594 595.632812 359.085938 C 597.253906 357.359375 599.496094 356.351562 601.863281 356.277344 C 604.226562 356.207031 606.527344 357.078125 608.25 358.699219 Z M 608.25 358.699219 " clip-rule="nonzero"/></clipPath><clipPath id="9c4e9a6b37"><path d="M 0.0390625 0.160156 L 94.121094 0.160156 L 94.121094 89.679688 L 0.0390625 89.679688 Z M 0.0390625 0.160156 " clip-rule="nonzero"/></clipPath><clipPath id="45e7329e86"><path d="M 8.75 -3.417969 L 97.738281 80.289062 L 85.507812 93.292969 L -3.484375 9.585938 Z M 8.75 -3.417969 " clip-rule="nonzero"/></clipPath><clipPath id="0ecc643c65"><path d="M 15.25 2.699219 L 91.191406 74.132812 C 92.917969 75.753906 93.925781 77.996094 94 80.363281 C 94.070312 82.726562 93.199219 85.027344 91.578125 86.75 C 89.957031 88.472656 87.714844 89.484375 85.351562 89.554688 C 82.984375 89.628906 80.6875 88.757812 78.960938 87.136719 L 3.019531 15.703125 C 1.292969 14.082031 0.285156 11.839844 0.210938 9.472656 C 0.140625 7.109375 1.011719 4.808594 2.632812 3.085938 C 4.253906 1.359375 6.496094 0.351562 8.863281 0.277344 C 11.226562 0.207031 13.527344 1.078125 15.25 2.699219 Z M 15.25 2.699219 " clip-rule="nonzero"/></clipPath><clipPath id="1aeebfa7ee"><rect x="0" width="95" y="0" height="90"/></clipPath><clipPath id="bdacdc9532"><path d="M 528 53 L 613 53 L 613 152 L 528 152 Z M 528 53 " clip-rule="nonzero"/></clipPath><clipPath id="6b329789bf"><path d="M 616.320312 60.996094 L 538.613281 155.265625 L 524.839844 143.910156 L 602.546875 49.640625 Z M 616.320312 60.996094 " clip-rule="nonzero"/></clipPath><clipPath id="963a43a180"><path d="M 610.644531 67.882812 L 544.328125 148.332031 C 542.820312 150.160156 540.652344 151.3125 538.296875 151.539062 C 535.941406 151.765625 533.589844 151.050781 531.761719 149.542969 C 529.9375 148.039062 528.78125 145.867188 528.554688 143.511719 C 528.328125 141.15625 529.046875 138.804688 530.554688 136.980469 L 596.871094 56.527344 C 598.375 54.703125 600.546875 53.546875 602.902344 53.320312 C 605.257812 53.09375 607.609375 53.8125 609.433594 55.320312 C 611.261719 56.824219 612.414062 58.996094 612.640625 61.351562 C 612.867188 63.707031 612.152344 66.058594 610.644531 67.882812 Z M 610.644531 67.882812 " clip-rule="nonzero"/></clipPath><clipPath id="c59c19cba3"><path d="M 0.238281 0.0390625 L 84.960938 0.0390625 L 84.960938 98.921875 L 0.238281 98.921875 Z M 0.238281 0.0390625 " clip-rule="nonzero"/></clipPath><clipPath id="39147e350f"><path d="M 88.320312 7.996094 L 10.613281 102.265625 L -3.160156 90.910156 L 74.546875 -3.359375 Z M 88.320312 7.996094 " clip-rule="nonzero"/></clipPath><clipPath id="80f56ea920"><path d="M 82.644531 14.882812 L 16.328125 95.332031 C 14.820312 97.160156 12.652344 98.3125 10.296875 98.539062 C 7.941406 98.765625 5.589844 98.050781 3.761719 96.542969 C 1.9375 95.039062 0.78125 92.867188 0.554688 90.511719 C 0.328125 88.15625 1.046875 85.804688 2.554688 83.980469 L 68.871094 3.527344 C 70.375 1.703125 72.546875 0.546875 74.902344 0.320312 C 77.257812 0.09375 79.609375 0.8125 81.433594 2.320312 C 83.261719 3.824219 84.414062 5.996094 84.640625 8.351562 C 84.867188 10.707031 84.152344 13.058594 82.644531 14.882812 Z M 82.644531 14.882812 " clip-rule="nonzero"/></clipPath><clipPath id="9408745524"><rect x="0" width="85" y="0" height="99"/></clipPath><clipPath id="af8df97c30"><rect x="0" width="342" y="0" height="138"/></clipPath><clipPath id="876b0b6f90"><rect x="0" width="810" y="0" height="810"/></clipPath></defs><rect x="-81" width="972" fill="#ffffff" y="-80.999999" height="971.999992" fill-opacity="1"/><rect x="-81" width="972" fill="#ffffff" y="-80.999999" height="971.999992" fill-opacity="1"/><g transform="matrix(1, 0, 0, 1, 0, 0.000000000000039746)"><g clip-path="url(#876b0b6f90)"><g transform="matrix(1, 0, 0, 1, 0, 0.000000000000039746)"><g clip-path="url(#6c51bfb763)"><g clip-path="url(#b2c1d9f184)"><rect x="-294.84" width="1399.68" fill="#ffdd2c" y="-294.839997" height="1399.679988" fill-opacity="1"/></g></g></g><g clip-path="url(#84e0489869)"><g clip-path="url(#9a06a28dac)"><g transform="matrix(1, 0, 0, 1, 0, 330)"><g clip-path="url(#82ac4664da)"><g clip-path="url(#7225df761f)"><g clip-path="url(#cc6501756f)"><path fill="#fdbc39" d="M 0 0.285156 L 809.519531 0.285156 L 809.519531 480 L 0 480 Z M 0 0.285156 " fill-opacity="1" fill-rule="nonzero"/></g></g></g></g></g></g><g clip-path="url(#c9fbd64bf6)"><path fill="#ffffff" d="M 587.644531 235.183594 C 587.027344 232.714844 585.175781 231.484375 582.710938 230.867188 L 465.519531 213.597656 L 413.09375 108.125 C 411.242188 103.808594 403.84375 103.808594 401.992188 108.125 L 349.566406 214.214844 L 232.375 231.484375 C 229.910156 232.101562 228.058594 233.332031 227.441406 235.800781 C 226.824219 238.265625 227.441406 240.734375 229.292969 241.96875 L 314.410156 324.617188 L 294.671875 441.1875 C 294.054688 443.65625 295.289062 446.125 297.140625 447.355469 C 298.988281 448.589844 301.457031 449.207031 303.921875 447.972656 L 408.777344 393.078125 L 513.628906 447.972656 C 514.246094 448.589844 515.480469 448.589844 516.714844 448.589844 C 517.945312 448.589844 519.179688 447.972656 520.414062 447.355469 C 522.265625 446.125 523.496094 443.65625 522.882812 441.1875 L 503.144531 324.617188 L 586.410156 241.96875 C 587.644531 240.117188 588.261719 237.652344 587.644531 235.183594 Z M 587.644531 235.183594 " fill-opacity="1" fill-rule="nonzero"/></g><g clip-path="url(#7f13204717)"><g clip-path="url(#b4ede8e238)"><g clip-path="url(#471c773300)"><g transform="matrix(1, 0, 0, 1, 74, 175)"><g clip-path="url(#aa3db5ca96)"><g clip-path="url(#ed7166c4f0)"><g clip-path="url(#6b121f63bc)"><g clip-path="url(#a7b502375d)"><path fill="#fff7bf" d="M 4.214844 -1.414062 L 119.949219 37.5 L 114.261719 54.421875 L -1.472656 15.507812 Z M 4.214844 -1.414062 " fill-opacity="1" fill-rule="nonzero"/></g></g></g></g></g></g></g></g><g clip-path="url(#d32dd9b71c)"><g clip-path="url(#ab3b67dd6f)"><g clip-path="url(#382b75aefa)"><g transform="matrix(1, 0, 0, 1, 638, 198)"><g clip-path="url(#ec16e925bc)"><g clip-path="url(#51de249295)"><g clip-path="url(#696c007a89)"><g clip-path="url(#ddd3e5e883)"><path fill="#fff7bf" d="M -1.195312 24.886719 L 117 -1.484375 L 120.859375 15.796875 L 2.664062 42.167969 Z M -1.195312 24.886719 " fill-opacity="1" fill-rule="nonzero"/></g></g></g></g></g></g></g></g><g clip-path="url(#784a8add29)"><g clip-path="url(#91882962d4)"><g clip-path="url(#c7b913677f)"><g transform="matrix(1, 0, 0, 1, 145, 345)"><g clip-path="url(#b751678e5f)"><g clip-path="url(#68b57192c1)"><g clip-path="url(#a3182f14bc)"><g clip-path="url(#0aef364694)"><path fill="#fff7bf" d="M -3.601562 72.664062 L 92.042969 -3.238281 L 103.140625 10.746094 L 7.496094 86.648438 Z M -3.601562 72.664062 " fill-opacity="1" fill-rule="nonzero"/></g></g></g></g></g></g></g></g><g clip-path="url(#1329aac0da)"><g clip-path="url(#ac69a0646e)"><g clip-path="url(#87ff759f0a)"><g transform="matrix(1, 0, 0, 1, 227, 51)"><g clip-path="url(#d6cc4e8b70)"><g clip-path="url(#709bcb944c)"><g clip-path="url(#986d4f02a2)"><g clip-path="url(#bff8427f1b)"><path fill="#fff7bf" d="M 11.476562 -3.082031 L 86.511719 93.242188 L 72.429688 104.210938 L -2.605469 7.890625 Z M 11.476562 -3.082031 " fill-opacity="1" fill-rule="nonzero"/></g></g></g></g></g></g></g></g><g clip-path="url(#5c146e10d7)"><g clip-path="url(#8f1b31d69b)"><g clip-path="url(#5c3b9f35f5)"><g transform="matrix(1, 0, 0, 1, 593, 356)"><g clip-path="url(#1aeebfa7ee)"><g clip-path="url(#9c4e9a6b37)"><g clip-path="url(#45e7329e86)"><g clip-path="url(#0ecc643c65)"><path fill="#fff7bf" d="M 8.75 -3.417969 L 97.6875 80.242188 L 85.457031 93.242188 L -3.484375 9.585938 Z M 8.75 -3.417969 " fill-opacity="1" fill-rule="nonzero"/></g></g></g></g></g></g></g></g><g clip-path="url(#bdacdc9532)"><g clip-path="url(#6b329789bf)"><g clip-path="url(#963a43a180)"><g transform="matrix(1, 0, 0, 1, 528, 53)"><g clip-path="url(#9408745524)"><g clip-path="url(#c59c19cba3)"><g clip-path="url(#39147e350f)"><g clip-path="url(#80f56ea920)"><path fill="#fff7bf" d="M 88.320312 7.996094 L 10.65625 102.210938 L -3.117188 90.859375 L 74.546875 -3.359375 Z M 88.320312 7.996094 " fill-opacity="1" fill-rule="nonzero"/></g></g></g></g></g></g></g></g><g transform="matrix(1, 0, 0, 1, 234, 625)"><g clip-path="url(#af8df97c30)"><g fill="#ffffff" fill-opacity="1"><g transform="translate(1.830988, 107.325003)"><g><path d="M 23.390625 0 L 9.28125 0 L 9.28125 -71.390625 L 23.390625 -71.390625 Z M 23.390625 0 "/></g></g></g><g fill="#ffffff" fill-opacity="1"><g transform="translate(34.544552, 107.325003)"><g><path d="M 7.765625 0 L 7.765625 -53.859375 L 20.75 -53.859375 L 20.75 -45.953125 L 21.78125 -45.703125 C 25.132812 -51.828125 30.570312 -54.890625 38.09375 -54.890625 C 44.300781 -54.890625 48.863281 -53.195312 51.78125 -49.8125 C 54.695312 -46.425781 56.15625 -41.492188 56.15625 -35.015625 L 56.15625 0 L 42.625 0 L 42.625 -33.34375 C 42.625 -36.925781 41.90625 -39.503906 40.46875 -41.078125 C 39.039062 -42.660156 36.75 -43.453125 33.59375 -43.453125 C 29.71875 -43.453125 26.695312 -42.195312 24.53125 -39.6875 C 22.375 -37.1875 21.296875 -33.25 21.296875 -27.875 L 21.296875 0 Z M 7.765625 0 "/></g></g></g><g fill="#ffffff" fill-opacity="1"><g transform="translate(97.628022, 107.325003)"><g><path d="M 25.203125 1.03125 C 21.515625 1.03125 18.140625 0.597656 15.078125 -0.265625 C 12.023438 -1.128906 9.414062 -2.316406 7.25 -3.828125 C 5.082031 -5.347656 3.476562 -7.082031 2.4375 -9.03125 L 9.96875 -17.140625 L 10.984375 -17.140625 C 12.773438 -14.734375 14.890625 -12.925781 17.328125 -11.71875 C 19.773438 -10.507812 22.429688 -9.90625 25.296875 -9.90625 C 27.929688 -9.90625 29.914062 -10.378906 31.25 -11.328125 C 32.582031 -12.273438 33.25 -13.625 33.25 -15.375 C 33.25 -16.75 32.769531 -17.898438 31.8125 -18.828125 C 30.851562 -19.753906 29.300781 -20.476562 27.15625 -21 L 20.015625 -22.703125 C 14.679688 -23.972656 10.785156 -25.914062 8.328125 -28.53125 C 5.867188 -31.15625 4.640625 -34.488281 4.640625 -38.53125 C 4.640625 -41.882812 5.492188 -44.796875 7.203125 -47.265625 C 8.910156 -49.742188 11.316406 -51.632812 14.421875 -52.9375 C 17.535156 -54.238281 21.160156 -54.890625 25.296875 -54.890625 C 30.140625 -54.890625 34.15625 -54.1875 37.34375 -52.78125 C 40.539062 -51.382812 43.035156 -49.515625 44.828125 -47.171875 L 37.59375 -39.359375 L 36.625 -39.359375 C 35.125 -41.046875 33.4375 -42.28125 31.5625 -43.0625 C 29.695312 -43.84375 27.609375 -44.234375 25.296875 -44.234375 C 19.953125 -44.234375 17.28125 -42.578125 17.28125 -39.265625 C 17.28125 -37.859375 17.773438 -36.710938 18.765625 -35.828125 C 19.765625 -34.953125 21.519531 -34.238281 24.03125 -33.6875 L 30.671875 -32.234375 C 36.140625 -31.054688 40.132812 -29.171875 42.65625 -26.578125 C 45.175781 -23.992188 46.4375 -20.519531 46.4375 -16.15625 C 46.4375 -12.738281 45.585938 -9.726562 43.890625 -7.125 C 42.203125 -4.519531 39.757812 -2.507812 36.5625 -1.09375 C 33.375 0.320312 29.585938 1.03125 25.203125 1.03125 Z M 25.203125 1.03125 "/></g></g></g><g fill="#ffffff" fill-opacity="1"><g transform="translate(147.284289, 107.325003)"><g><path d="M 7.765625 21.828125 L 7.765625 -53.859375 L 21.296875 -53.859375 L 21.296875 -46.828125 L 22.3125 -46.625 C 23.90625 -49.363281 26.035156 -51.425781 28.703125 -52.8125 C 31.378906 -54.195312 34.507812 -54.890625 38.09375 -54.890625 C 42.414062 -54.890625 46.195312 -53.863281 49.4375 -51.8125 C 52.675781 -49.757812 55.195312 -46.640625 57 -42.453125 C 58.8125 -38.273438 59.71875 -33.09375 59.71875 -26.90625 C 59.71875 -20.75 58.765625 -15.585938 56.859375 -11.421875 C 54.953125 -7.253906 52.304688 -4.132812 48.921875 -2.0625 C 45.535156 0 41.628906 1.03125 37.203125 1.03125 C 33.847656 1.03125 30.953125 0.464844 28.515625 -0.65625 C 26.078125 -1.78125 24.007812 -3.53125 22.3125 -5.90625 L 21.296875 -5.71875 L 21.296875 21.828125 Z M 33.453125 -10.453125 C 37.484375 -10.453125 40.539062 -11.769531 42.625 -14.40625 C 44.707031 -17.039062 45.75 -21.207031 45.75 -26.90625 C 45.75 -32.601562 44.707031 -36.773438 42.625 -39.421875 C 40.539062 -42.078125 37.484375 -43.40625 33.453125 -43.40625 C 29.671875 -43.40625 26.671875 -42.035156 24.453125 -39.296875 C 22.242188 -36.566406 21.140625 -32.4375 21.140625 -26.90625 C 21.140625 -21.40625 22.242188 -17.285156 24.453125 -14.546875 C 26.671875 -11.816406 29.671875 -10.453125 33.453125 -10.453125 Z M 33.453125 -10.453125 "/></g></g></g><g fill="#ffffff" fill-opacity="1"><g transform="translate(211.783737, 107.325003)"><g><path d="M 14.5 -60.296875 C 12.0625 -60.296875 10.078125 -61.035156 8.546875 -62.515625 C 7.015625 -64.003906 6.25 -65.921875 6.25 -68.265625 C 6.25 -70.578125 7.015625 -72.472656 8.546875 -73.953125 C 10.078125 -75.429688 12.0625 -76.171875 14.5 -76.171875 C 16.125 -76.171875 17.570312 -75.828125 18.84375 -75.140625 C 20.113281 -74.460938 21.097656 -73.53125 21.796875 -72.34375 C 22.503906 -71.15625 22.859375 -69.796875 22.859375 -68.265625 C 22.859375 -66.734375 22.503906 -65.363281 21.796875 -64.15625 C 21.097656 -62.957031 20.113281 -62.015625 18.84375 -61.328125 C 17.570312 -60.640625 16.125 -60.296875 14.5 -60.296875 Z M 7.765625 0 L 7.765625 -53.859375 L 21.296875 -53.859375 L 21.296875 0 Z M 7.765625 0 "/></g></g></g><g fill="#ffffff" fill-opacity="1"><g transform="translate(240.786497, 107.325003)"><g><path d="M 7.765625 0 L 7.765625 -53.859375 L 20.90625 -53.859375 L 20.90625 -45.84375 L 21.921875 -45.65625 C 23.222656 -48.644531 24.929688 -50.835938 27.046875 -52.234375 C 29.160156 -53.640625 31.734375 -54.34375 34.765625 -54.34375 C 37.828125 -54.34375 40.15625 -53.820312 41.75 -52.78125 L 39.453125 -41.109375 L 38.421875 -40.921875 C 37.546875 -41.273438 36.703125 -41.53125 35.890625 -41.6875 C 35.078125 -41.851562 34.082031 -41.9375 32.90625 -41.9375 C 29.132812 -41.9375 26.253906 -40.609375 24.265625 -37.953125 C 22.285156 -35.304688 21.296875 -31.054688 21.296875 -25.203125 L 21.296875 0 Z M 7.765625 0 "/></g></g></g><g fill="#ffffff" fill-opacity="1"><g transform="translate(281.60519, 107.325003)"><g><path d="M 53.21875 -23.875 L 18.609375 -23.875 C 18.992188 -19.1875 20.328125 -15.773438 22.609375 -13.640625 C 24.890625 -11.515625 28 -10.453125 31.9375 -10.453125 C 35.03125 -10.453125 37.535156 -11.03125 39.453125 -12.1875 C 41.367188 -13.34375 42.914062 -15.09375 44.09375 -17.4375 L 45.125 -17.4375 L 54.109375 -11.671875 C 52.347656 -7.890625 49.691406 -4.828125 46.140625 -2.484375 C 42.597656 -0.140625 37.863281 1.03125 31.9375 1.03125 C 26.363281 1.03125 21.550781 -0.0234375 17.5 -2.140625 C 13.445312 -4.265625 10.320312 -7.414062 8.125 -11.59375 C 5.925781 -15.78125 4.828125 -20.882812 4.828125 -26.90625 C 4.828125 -33.019531 5.984375 -38.175781 8.296875 -42.375 C 10.609375 -46.582031 13.734375 -49.71875 17.671875 -51.78125 C 21.609375 -53.851562 26.035156 -54.890625 30.953125 -54.890625 C 38.578125 -54.890625 44.414062 -52.867188 48.46875 -48.828125 C 52.519531 -44.796875 54.546875 -38.875 54.546875 -31.0625 C 54.546875 -28.226562 54.445312 -26.03125 54.25 -24.46875 Z M 41.609375 -32.625 C 41.472656 -36.71875 40.515625 -39.703125 38.734375 -41.578125 C 36.960938 -43.453125 34.367188 -44.390625 30.953125 -44.390625 C 24.117188 -44.390625 20.097656 -40.46875 18.890625 -32.625 Z M 41.609375 -32.625 "/></g></g></g></g></g></g></g></svg>