<svg xmlns="http://www.w3.org/2000/svg" xmlns:xlink="http://www.w3.org/1999/xlink" width="1080" zoomAndPan="magnify" viewBox="0 0 810 809.999993" height="1080" preserveAspectRatio="xMidYMid meet" version="1.0"><defs><g/><clipPath id="fe1a9aa81e"><path d="M 0 0 L 809.636719 0 L 809.636719 810 L 0 810 Z M 0 0 " clip-rule="nonzero"/></clipPath><clipPath id="d089378e37"><path d="M 0 0 L 809.636719 0 L 809.636719 810 L 0 810 Z M 0 0 " clip-rule="nonzero"/></clipPath><clipPath id="499b14ff84"><rect x="0" width="810" y="0" height="810"/></clipPath><clipPath id="d120605289"><path d="M 0 516.617188 L 799.925781 516.617188 L 799.925781 810 L 0 810 Z M 0 516.617188 " clip-rule="nonzero"/></clipPath><clipPath id="257f1917c7"><path d="M 399.957031 516.617188 L 799.914062 810 L 0 810 Z M 399.957031 516.617188 " clip-rule="nonzero"/></clipPath><clipPath id="51b1b82078"><path d="M 0 0.617188 L 799.921875 0.617188 L 799.921875 294 L 0 294 Z M 0 0.617188 " clip-rule="nonzero"/></clipPath><clipPath id="ce317aef54"><path d="M 399.957031 0.617188 L 799.914062 294 L 0 294 Z M 399.957031 0.617188 " clip-rule="nonzero"/></clipPath><clipPath id="57afed838b"><rect x="0" width="800" y="0" height="294"/></clipPath><clipPath id="f5fceee6aa"><path d="M 387 55.761719 L 412 55.761719 L 412 153 L 387 153 Z M 387 55.761719 " clip-rule="nonzero"/></clipPath><clipPath id="bf49c3ba1c"><path d="M 131 312 L 228 312 L 228 337 L 131 337 Z M 131 312 " clip-rule="nonzero"/></clipPath><clipPath id="5b3e75dea9"><path d="M 572 312 L 667.632812 312 L 667.632812 337 L 572 337 Z M 572 312 " clip-rule="nonzero"/></clipPath><clipPath id="95167c9c0e"><path d="M 367 605 L 433 605 L 433 630.453125 L 367 630.453125 Z M 367 605 " clip-rule="nonzero"/></clipPath><clipPath id="c4f573d90e"><rect x="0" width="314" y="0" height="138"/></clipPath><clipPath id="16e6412479"><rect x="0" width="810" y="0" height="810"/></clipPath></defs><rect x="-81" width="972" fill="#ffffff" y="-80.999999" height="971.999992" fill-opacity="1"/><rect x="-81" width="972" fill="#ffffff" y="-80.999999" height="971.999992" fill-opacity="1"/><g transform="matrix(1, 0, 0, 1, 0, 0.000000000000039746)"><g clip-path="url(#16e6412479)"><g clip-path="url(#fe1a9aa81e)"><g transform="matrix(1, 0, 0, 1, 0, 0.000000000000039746)"><g clip-path="url(#499b14ff84)"><g clip-path="url(#d089378e37)"><path fill="#893cf7" d="M 0 0 L 809.640625 0 L 809.640625 809.640625 L 0 809.640625 Z M 0 0 " fill-opacity="1" fill-rule="nonzero"/></g></g></g></g><g clip-path="url(#d120605289)"><g clip-path="url(#257f1917c7)"><g transform="matrix(1, 0, 0, 1, 0, 516)"><g clip-path="url(#57afed838b)"><g clip-path="url(#51b1b82078)"><g clip-path="url(#ce317aef54)"><path fill="#680ad3" d="M 0 0.617188 L 799.925781 0.617188 L 799.925781 294 L 0 294 Z M 0 0.617188 " fill-opacity="1" fill-rule="nonzero"/></g></g></g></g></g></g><g clip-path="url(#f5fceee6aa)"><path fill="#c08eff" d="M 399.941406 152.0625 C 406.539062 152.0625 411.886719 146.710938 411.886719 140.113281 L 411.886719 67.757812 C 411.886719 61.164062 406.539062 55.8125 399.941406 55.8125 C 393.34375 55.8125 387.996094 61.164062 387.996094 67.757812 L 387.996094 140.113281 C 387.996094 146.710938 393.34375 152.0625 399.941406 152.0625 " fill-opacity="1" fill-rule="nonzero"/></g><path fill="#c08eff" d="M 260.929688 202.644531 C 263.261719 204.976562 266.320312 206.140625 269.375 206.140625 C 272.433594 206.140625 275.492188 204.976562 277.824219 202.644531 C 282.488281 197.976562 282.488281 190.414062 277.824219 185.75 L 226.660156 134.585938 C 221.996094 129.921875 214.433594 129.921875 209.769531 134.585938 C 205.101562 139.25 205.101562 146.816406 209.769531 151.480469 L 260.929688 202.644531 " fill-opacity="1" fill-rule="nonzero"/><g clip-path="url(#bf49c3ba1c)"><path fill="#c08eff" d="M 227.242188 324.757812 C 227.242188 318.164062 221.894531 312.8125 215.296875 312.8125 L 142.941406 312.8125 C 136.339844 312.8125 130.996094 318.164062 130.996094 324.757812 C 130.996094 331.355469 136.339844 336.707031 142.941406 336.707031 L 215.296875 336.707031 C 221.894531 336.707031 227.242188 331.355469 227.242188 324.757812 " fill-opacity="1" fill-rule="nonzero"/></g><path fill="#c08eff" d="M 260.929688 446.875 L 209.769531 498.039062 C 205.101562 502.703125 205.101562 510.269531 209.769531 514.933594 C 212.097656 517.265625 215.15625 518.433594 218.214844 518.433594 C 221.273438 518.433594 224.328125 517.265625 226.660156 514.933594 L 277.824219 463.769531 C 282.488281 459.105469 282.488281 451.542969 277.824219 446.875 C 273.160156 442.210938 265.597656 442.210938 260.929688 446.875 " fill-opacity="1" fill-rule="nonzero"/><path fill="#c08eff" d="M 538.949219 446.875 C 534.285156 442.210938 526.722656 442.210938 522.058594 446.875 C 517.394531 451.542969 517.394531 459.105469 522.058594 463.769531 L 573.21875 514.933594 C 575.554688 517.265625 578.609375 518.433594 581.667969 518.433594 C 584.726562 518.433594 587.78125 517.265625 590.113281 514.933594 C 594.777344 510.269531 594.777344 502.703125 590.113281 498.039062 L 538.949219 446.875 " fill-opacity="1" fill-rule="nonzero"/><g clip-path="url(#5b3e75dea9)"><path fill="#c08eff" d="M 656.941406 312.8125 L 584.585938 312.8125 C 577.988281 312.8125 572.640625 318.164062 572.640625 324.757812 C 572.640625 331.355469 577.988281 336.707031 584.585938 336.707031 L 656.941406 336.707031 C 663.539062 336.707031 668.886719 331.355469 668.886719 324.757812 C 668.886719 318.164062 663.539062 312.8125 656.941406 312.8125 " fill-opacity="1" fill-rule="nonzero"/></g><path fill="#c08eff" d="M 530.503906 206.140625 C 533.5625 206.140625 536.621094 204.976562 538.949219 202.644531 L 590.113281 151.480469 C 594.777344 146.816406 594.777344 139.25 590.113281 134.585938 C 585.449219 129.921875 577.886719 129.921875 573.21875 134.585938 L 522.058594 185.75 C 517.394531 190.414062 517.394531 197.976562 522.058594 202.644531 C 524.390625 204.976562 527.445312 206.140625 530.503906 206.140625 " fill-opacity="1" fill-rule="nonzero"/><path fill="#c08eff" d="M 399.941406 238.753906 C 376.691406 238.753906 354.839844 247.804688 338.398438 264.242188 C 321.960938 280.679688 312.910156 302.535156 312.910156 325.78125 C 312.910156 332.382812 307.5625 337.730469 300.960938 337.730469 C 294.367188 337.730469 289.019531 332.382812 289.019531 325.78125 C 289.019531 310.8125 291.953125 296.285156 297.742188 282.601562 C 303.328125 269.394531 311.320312 257.53125 321.507812 247.347656 C 331.6875 237.164062 343.550781 229.167969 356.761719 223.582031 C 370.445312 217.796875 384.96875 214.859375 399.941406 214.859375 C 406.539062 214.859375 411.886719 220.207031 411.886719 226.804688 C 411.886719 233.402344 406.539062 238.753906 399.941406 238.753906 Z M 402.179688 177.648438 C 322.183594 176.433594 255.996094 241.101562 255.425781 321.101562 C 255.175781 355.976562 267.285156 388.011719 287.628906 413.101562 C 305.691406 435.375 318.804688 461.242188 326.875 488.761719 L 326.875 488.765625 C 334.453125 514.609375 342.707031 540.09375 369.636719 540.09375 L 430.242188 540.09375 C 457.175781 540.09375 465.429688 514.609375 473.003906 488.765625 L 473.234375 488 C 481.332031 460.382812 494.957031 434.753906 512.921875 412.273438 C 532.660156 387.5625 544.460938 356.238281 544.460938 322.152344 C 544.460938 243.082031 480.960938 178.84375 402.179688 177.648438 " fill-opacity="1" fill-rule="nonzero"/><path fill="#c77dff" d="M 347.039062 550.703125 L 452.84375 550.703125 C 457.554688 550.703125 461.375 546.882812 461.375 542.171875 C 461.375 537.457031 457.554688 533.636719 452.84375 533.636719 L 347.039062 533.636719 C 342.328125 533.636719 338.503906 537.457031 338.503906 542.171875 C 338.503906 546.882812 342.328125 550.703125 347.039062 550.703125 " fill-opacity="1" fill-rule="nonzero"/><path fill="#c77dff" d="M 452.84375 557.527344 L 347.039062 557.527344 C 342.328125 557.527344 338.503906 561.347656 338.503906 566.0625 C 338.503906 570.773438 342.328125 574.59375 347.039062 574.59375 L 452.84375 574.59375 C 457.554688 574.59375 461.375 570.773438 461.375 566.0625 C 461.375 561.347656 457.554688 557.527344 452.84375 557.527344 " fill-opacity="1" fill-rule="nonzero"/><path fill="#c77dff" d="M 452.84375 581.417969 L 347.039062 581.417969 C 342.328125 581.417969 338.503906 585.238281 338.503906 589.953125 C 338.503906 594.664062 342.328125 598.484375 347.039062 598.484375 L 452.84375 598.484375 C 457.554688 598.484375 461.375 594.664062 461.375 589.953125 C 461.375 585.238281 457.554688 581.417969 452.84375 581.417969 " fill-opacity="1" fill-rule="nonzero"/><g clip-path="url(#95167c9c0e)"><path fill="#c77dff" d="M 399.941406 630.226562 C 417.984375 630.226562 432.617188 619.222656 432.617188 605.652344 L 367.265625 605.652344 C 367.265625 619.222656 381.894531 630.226562 399.941406 630.226562 " fill-opacity="1" fill-rule="nonzero"/></g><g transform="matrix(1, 0, 0, 1, 243, 632)"><g clip-path="url(#c4f573d90e)"><g fill="#ffffff" fill-opacity="1"><g transform="translate(1.091812, 107.423511)"><g><path d="M 23.390625 0 L 9.28125 0 L 9.28125 -71.390625 L 23.390625 -71.390625 Z M 23.390625 0 "/></g></g></g><g fill="#ffffff" fill-opacity="1"><g transform="translate(33.805374, 107.423511)"><g><path d="M 26.609375 1.03125 C 22.347656 1.03125 18.582031 0 15.3125 -2.0625 C 12.039062 -4.132812 9.472656 -7.257812 7.609375 -11.4375 C 5.753906 -15.625 4.828125 -20.78125 4.828125 -26.90625 C 4.828125 -33.0625 5.78125 -38.226562 7.6875 -42.40625 C 9.59375 -46.59375 12.226562 -49.71875 15.59375 -51.78125 C 18.96875 -53.851562 22.867188 -54.890625 27.296875 -54.890625 C 30.648438 -54.890625 33.554688 -54.3125 36.015625 -53.15625 C 38.472656 -52 40.546875 -50.195312 42.234375 -47.75 L 43.265625 -48 L 43.265625 -75.484375 L 56.78125 -75.484375 L 56.78125 0 L 43.265625 0 L 43.265625 -6.984375 L 42.234375 -7.171875 C 40.734375 -4.640625 38.679688 -2.640625 36.078125 -1.171875 C 33.472656 0.292969 30.316406 1.03125 26.609375 1.03125 Z M 31 -10.453125 C 34.8125 -10.453125 37.820312 -11.8125 40.03125 -14.53125 C 42.25 -17.25 43.359375 -21.375 43.359375 -26.90625 C 43.359375 -32.4375 42.25 -36.566406 40.03125 -39.296875 C 37.820312 -42.035156 34.8125 -43.40625 31 -43.40625 C 27.03125 -43.40625 23.992188 -42.078125 21.890625 -39.421875 C 19.796875 -36.773438 18.75 -32.601562 18.75 -26.90625 C 18.75 -21.238281 19.796875 -17.078125 21.890625 -14.421875 C 23.992188 -11.773438 27.03125 -10.453125 31 -10.453125 Z M 31 -10.453125 "/></g></g></g><g fill="#ffffff" fill-opacity="1"><g transform="translate(98.353626, 107.423511)"><g><path d="M 53.21875 -23.875 L 18.609375 -23.875 C 18.992188 -19.1875 20.328125 -15.773438 22.609375 -13.640625 C 24.890625 -11.515625 28 -10.453125 31.9375 -10.453125 C 35.03125 -10.453125 37.535156 -11.03125 39.453125 -12.1875 C 41.367188 -13.34375 42.914062 -15.09375 44.09375 -17.4375 L 45.125 -17.4375 L 54.109375 -11.671875 C 52.347656 -7.890625 49.691406 -4.828125 46.140625 -2.484375 C 42.597656 -0.140625 37.863281 1.03125 31.9375 1.03125 C 26.363281 1.03125 21.550781 -0.0234375 17.5 -2.140625 C 13.445312 -4.265625 10.320312 -7.414062 8.125 -11.59375 C 5.925781 -15.78125 4.828125 -20.882812 4.828125 -26.90625 C 4.828125 -33.019531 5.984375 -38.175781 8.296875 -42.375 C 10.609375 -46.582031 13.734375 -49.71875 17.671875 -51.78125 C 21.609375 -53.851562 26.035156 -54.890625 30.953125 -54.890625 C 38.578125 -54.890625 44.414062 -52.867188 48.46875 -48.828125 C 52.519531 -44.796875 54.546875 -38.875 54.546875 -31.0625 C 54.546875 -28.226562 54.445312 -26.03125 54.25 -24.46875 Z M 41.609375 -32.625 C 41.472656 -36.71875 40.515625 -39.703125 38.734375 -41.578125 C 36.960938 -43.453125 34.367188 -44.390625 30.953125 -44.390625 C 24.117188 -44.390625 20.097656 -40.46875 18.890625 -32.625 Z M 41.609375 -32.625 "/></g></g></g><g fill="#ffffff" fill-opacity="1"><g transform="translate(156.89626, 107.423511)"><g><path d="M 21 1.03125 C 17.550781 1.03125 14.554688 0.394531 12.015625 -0.875 C 9.472656 -2.144531 7.519531 -4.007812 6.15625 -6.46875 C 4.789062 -8.925781 4.109375 -11.878906 4.109375 -15.328125 C 4.109375 -18.523438 4.789062 -21.203125 6.15625 -23.359375 C 7.519531 -25.523438 9.632812 -27.300781 12.5 -28.6875 C 15.363281 -30.070312 19.109375 -31.140625 23.734375 -31.890625 C 26.953125 -32.410156 29.398438 -32.976562 31.078125 -33.59375 C 32.753906 -34.207031 33.882812 -34.90625 34.46875 -35.6875 C 35.0625 -36.46875 35.359375 -37.460938 35.359375 -38.671875 C 35.359375 -40.398438 34.753906 -41.71875 33.546875 -42.625 C 32.335938 -43.539062 30.335938 -44 27.546875 -44 C 24.546875 -44 21.691406 -43.328125 18.984375 -41.984375 C 16.285156 -40.648438 13.945312 -38.894531 11.96875 -36.71875 L 10.984375 -36.71875 L 5.328125 -45.265625 C 8.054688 -48.296875 11.390625 -50.65625 15.328125 -52.34375 C 19.265625 -54.039062 23.5625 -54.890625 28.21875 -54.890625 C 35.351562 -54.890625 40.515625 -53.375 43.703125 -50.34375 C 46.890625 -47.3125 48.484375 -43.015625 48.484375 -37.453125 L 48.484375 -14.0625 C 48.484375 -11.65625 49.539062 -10.453125 51.65625 -10.453125 C 52.46875 -10.453125 53.265625 -10.597656 54.046875 -10.890625 L 54.734375 -10.6875 L 55.71875 -1.265625 C 54.96875 -0.773438 53.925781 -0.375 52.59375 -0.0625 C 51.257812 0.238281 49.789062 0.390625 48.1875 0.390625 C 44.96875 0.390625 42.453125 -0.226562 40.640625 -1.46875 C 38.835938 -2.707031 37.546875 -4.644531 36.765625 -7.28125 L 35.75 -7.375 C 33.101562 -1.769531 28.1875 1.03125 21 1.03125 Z M 25.296875 -9.078125 C 28.421875 -9.078125 30.914062 -10.125 32.78125 -12.21875 C 34.65625 -14.320312 35.59375 -17.25 35.59375 -21 L 35.59375 -26.46875 L 34.671875 -26.65625 C 33.859375 -26.007812 32.789062 -25.460938 31.46875 -25.015625 C 30.15625 -24.578125 28.257812 -24.148438 25.78125 -23.734375 C 22.851562 -23.242188 20.742188 -22.40625 19.453125 -21.21875 C 18.171875 -20.03125 17.53125 -18.34375 17.53125 -16.15625 C 17.53125 -13.851562 18.210938 -12.097656 19.578125 -10.890625 C 20.941406 -9.679688 22.847656 -9.078125 25.296875 -9.078125 Z M 25.296875 -9.078125 "/></g></g></g><g fill="#ffffff" fill-opacity="1"><g transform="translate(213.046392, 107.423511)"><g><path d="M 37.15625 -12.84375 L 40.671875 -2.828125 C 39.210938 -1.628906 37.375 -0.6875 35.15625 0 C 32.945312 0.6875 30.441406 1.03125 27.640625 1.03125 C 21.804688 1.03125 17.375 -0.554688 14.34375 -3.734375 C 11.320312 -6.910156 9.8125 -11.523438 9.8125 -17.578125 L 9.8125 -43.171875 L 1.609375 -43.171875 L 1.609375 -53.90625 L 9.8125 -53.90625 L 9.8125 -64.40625 L 23.34375 -66.609375 L 23.34375 -53.90625 L 38.625 -53.90625 L 38.625 -43.171875 L 23.34375 -43.171875 L 23.34375 -18.5625 C 23.34375 -15.882812 23.894531 -13.9375 25 -12.71875 C 26.101562 -11.5 27.710938 -10.890625 29.828125 -10.890625 C 32.242188 -10.890625 34.347656 -11.539062 36.140625 -12.84375 Z M 37.15625 -12.84375 "/></g></g></g><g fill="#ffffff" fill-opacity="1"><g transform="translate(254.255739, 107.423511)"><g><path d="M 53.21875 -23.875 L 18.609375 -23.875 C 18.992188 -19.1875 20.328125 -15.773438 22.609375 -13.640625 C 24.890625 -11.515625 28 -10.453125 31.9375 -10.453125 C 35.03125 -10.453125 37.535156 -11.03125 39.453125 -12.1875 C 41.367188 -13.34375 42.914062 -15.09375 44.09375 -17.4375 L 45.125 -17.4375 L 54.109375 -11.671875 C 52.347656 -7.890625 49.691406 -4.828125 46.140625 -2.484375 C 42.597656 -0.140625 37.863281 1.03125 31.9375 1.03125 C 26.363281 1.03125 21.550781 -0.0234375 17.5 -2.140625 C 13.445312 -4.265625 10.320312 -7.414062 8.125 -11.59375 C 5.925781 -15.78125 4.828125 -20.882812 4.828125 -26.90625 C 4.828125 -33.019531 5.984375 -38.175781 8.296875 -42.375 C 10.609375 -46.582031 13.734375 -49.71875 17.671875 -51.78125 C 21.609375 -53.851562 26.035156 -54.890625 30.953125 -54.890625 C 38.578125 -54.890625 44.414062 -52.867188 48.46875 -48.828125 C 52.519531 -44.796875 54.546875 -38.875 54.546875 -31.0625 C 54.546875 -28.226562 54.445312 -26.03125 54.25 -24.46875 Z M 41.609375 -32.625 C 41.472656 -36.71875 40.515625 -39.703125 38.734375 -41.578125 C 36.960938 -43.453125 34.367188 -44.390625 30.953125 -44.390625 C 24.117188 -44.390625 20.097656 -40.46875 18.890625 -32.625 Z M 41.609375 -32.625 "/></g></g></g></g></g></g></g></svg>