<svg xmlns="http://www.w3.org/2000/svg" xmlns:xlink="http://www.w3.org/1999/xlink" width="1080" zoomAndPan="magnify" viewBox="0 0 810 809.999993" height="1080" preserveAspectRatio="xMidYMid meet" version="1.0"><defs><g/><clipPath id="2dd91ea288"><path d="M 0 0 L 808.972656 0 L 808.972656 810 L 0 810 Z M 0 0 " clip-rule="nonzero"/></clipPath><clipPath id="c9e937e025"><path d="M 0 0 L 808.972656 0 L 808.972656 810 L 0 810 Z M 0 0 " clip-rule="nonzero"/></clipPath><clipPath id="f4b47c7dd3"><rect x="0" width="809" y="0" height="810"/></clipPath><clipPath id="c492f5d7bc"><path d="M 0 545.925781 L 809 545.925781 L 809 810 L 0 810 Z M 0 545.925781 " clip-rule="nonzero"/></clipPath><clipPath id="99ab7697c1"><path d="M 808.972656 810 C 808.972656 666.160156 624.804688 545.925781 404.488281 545.925781 C 184.167969 545.925781 0 666.160156 0 810 Z M 808.972656 810 " clip-rule="nonzero"/></clipPath><clipPath id="4b6b1d86d2"><path d="M 0 0.925781 L 809 0.925781 L 809 265 L 0 265 Z M 0 0.925781 " clip-rule="nonzero"/></clipPath><clipPath id="869cd5abf7"><path d="M 808.972656 265 C 808.972656 121.160156 624.804688 0.925781 404.488281 0.925781 C 184.167969 0.925781 0 121.160156 0 265 Z M 808.972656 265 " clip-rule="nonzero"/></clipPath><clipPath id="56de573112"><rect x="0" width="809" y="0" height="265"/></clipPath><clipPath id="9a0f419e99"><path d="M 74.9375 571.515625 L 209.527344 571.515625 L 209.527344 680.203125 L 74.9375 680.203125 Z M 74.9375 571.515625 " clip-rule="nonzero"/></clipPath><clipPath id="5f12e43577"><path d="M 142.09375 571.515625 C 105.003906 571.515625 74.9375 595.84375 74.9375 625.859375 C 74.9375 655.875 105.003906 680.203125 142.09375 680.203125 C 179.183594 680.203125 209.25 655.875 209.25 625.859375 C 209.25 595.84375 179.183594 571.515625 142.09375 571.515625 Z M 142.09375 571.515625 " clip-rule="nonzero"/></clipPath><clipPath id="81fb89c763"><path d="M 0.9375 0.515625 L 135.28125 0.515625 L 135.28125 109.203125 L 0.9375 109.203125 Z M 0.9375 0.515625 " clip-rule="nonzero"/></clipPath><clipPath id="3922b2b829"><path d="M 68.09375 0.515625 C 31.003906 0.515625 0.9375 24.84375 0.9375 54.859375 C 0.9375 84.875 31.003906 109.203125 68.09375 109.203125 C 105.183594 109.203125 135.25 84.875 135.25 54.859375 C 135.25 24.84375 105.183594 0.515625 68.09375 0.515625 Z M 68.09375 0.515625 " clip-rule="nonzero"/></clipPath><clipPath id="ac1cc20430"><rect x="0" width="136" y="0" height="110"/></clipPath><clipPath id="4dda3e137b"><path d="M 325.980469 459.40625 L 517.945312 459.40625 L 517.945312 632.441406 L 325.980469 632.441406 Z M 325.980469 459.40625 " clip-rule="nonzero"/></clipPath><clipPath id="0e7f24dd37"><path d="M 421.703125 459.40625 C 368.835938 459.40625 325.980469 498.140625 325.980469 545.925781 C 325.980469 593.707031 368.835938 632.441406 421.703125 632.441406 C 474.570312 632.441406 517.425781 593.707031 517.425781 545.925781 C 517.425781 498.140625 474.570312 459.40625 421.703125 459.40625 Z M 421.703125 459.40625 " clip-rule="nonzero"/></clipPath><clipPath id="819555de24"><path d="M 0.980469 0.40625 L 192.441406 0.40625 L 192.441406 173.441406 L 0.980469 173.441406 Z M 0.980469 0.40625 " clip-rule="nonzero"/></clipPath><clipPath id="6817c0aa00"><path d="M 96.703125 0.40625 C 43.835938 0.40625 0.980469 39.140625 0.980469 86.925781 C 0.980469 134.707031 43.835938 173.441406 96.703125 173.441406 C 149.570312 173.441406 192.425781 134.707031 192.425781 86.925781 C 192.425781 39.140625 149.570312 0.40625 96.703125 0.40625 Z M 96.703125 0.40625 " clip-rule="nonzero"/></clipPath><clipPath id="1eac9026a6"><rect x="0" width="193" y="0" height="174"/></clipPath><clipPath id="ab5403dbc4"><path d="M 134.535156 496.601562 L 326 496.601562 L 326 669.640625 L 134.535156 669.640625 Z M 134.535156 496.601562 " clip-rule="nonzero"/></clipPath><clipPath id="e2524dfd63"><path d="M 230.257812 496.601562 C 177.390625 496.601562 134.535156 535.335938 134.535156 583.121094 C 134.535156 630.902344 177.390625 669.640625 230.257812 669.640625 C 283.125 669.640625 325.980469 630.902344 325.980469 583.121094 C 325.980469 535.335938 283.125 496.601562 230.257812 496.601562 Z M 230.257812 496.601562 " clip-rule="nonzero"/></clipPath><clipPath id="1a956ce4e0"><path d="M 0.535156 0.601562 L 192 0.601562 L 192 173.640625 L 0.535156 173.640625 Z M 0.535156 0.601562 " clip-rule="nonzero"/></clipPath><clipPath id="ecb9be5276"><path d="M 96.257812 0.601562 C 43.390625 0.601562 0.535156 39.335938 0.535156 87.121094 C 0.535156 134.902344 43.390625 173.640625 96.257812 173.640625 C 149.125 173.640625 191.980469 134.902344 191.980469 87.121094 C 191.980469 39.335938 149.125 0.601562 96.257812 0.601562 Z M 96.257812 0.601562 " clip-rule="nonzero"/></clipPath><clipPath id="15af212567"><rect x="0" width="192" y="0" height="174"/></clipPath><clipPath id="a7e6553841"><path d="M 477.898438 516.964844 L 685 516.964844 L 685 703.847656 L 477.898438 703.847656 Z M 477.898438 516.964844 " clip-rule="nonzero"/></clipPath><clipPath id="d953384b10"><path d="M 581.28125 516.964844 C 524.183594 516.964844 477.898438 558.800781 477.898438 610.40625 C 477.898438 662.011719 524.183594 703.847656 581.28125 703.847656 C 638.375 703.847656 684.664062 662.011719 684.664062 610.40625 C 684.664062 558.800781 638.375 516.964844 581.28125 516.964844 Z M 581.28125 516.964844 " clip-rule="nonzero"/></clipPath><clipPath id="daa6336bc3"><path d="M 0.898438 0.964844 L 207.71875 0.964844 L 207.71875 187.847656 L 0.898438 187.847656 Z M 0.898438 0.964844 " clip-rule="nonzero"/></clipPath><clipPath id="b47044cec9"><path d="M 104.28125 0.964844 C 47.183594 0.964844 0.898438 42.800781 0.898438 94.40625 C 0.898438 146.011719 47.183594 187.847656 104.28125 187.847656 C 161.375 187.847656 207.664062 146.011719 207.664062 94.40625 C 207.664062 42.800781 161.375 0.964844 104.28125 0.964844 Z M 104.28125 0.964844 " clip-rule="nonzero"/></clipPath><clipPath id="ea24f5728e"><rect x="0" width="208" y="0" height="188"/></clipPath><clipPath id="b895e0110e"><path d="M 606.449219 602.082031 L 763 602.082031 L 763 737.195312 L 606.449219 737.195312 Z M 606.449219 602.082031 " clip-rule="nonzero"/></clipPath><clipPath id="ad358e35cb"><path d="M 684.664062 602.082031 C 641.464844 602.082031 606.449219 632.328125 606.449219 669.640625 C 606.449219 706.949219 641.464844 737.195312 684.664062 737.195312 C 727.859375 737.195312 762.875 706.949219 762.875 669.640625 C 762.875 632.328125 727.859375 602.082031 684.664062 602.082031 Z M 684.664062 602.082031 " clip-rule="nonzero"/></clipPath><clipPath id="55980fbcd9"><path d="M 0.449219 0.0820312 L 156.960938 0.0820312 L 156.960938 135.195312 L 0.449219 135.195312 Z M 0.449219 0.0820312 " clip-rule="nonzero"/></clipPath><clipPath id="2989addaee"><path d="M 78.664062 0.0820312 C 35.464844 0.0820312 0.449219 30.328125 0.449219 67.640625 C 0.449219 104.949219 35.464844 135.195312 78.664062 135.195312 C 121.859375 135.195312 156.875 104.949219 156.875 67.640625 C 156.875 30.328125 121.859375 0.0820312 78.664062 0.0820312 Z M 78.664062 0.0820312 " clip-rule="nonzero"/></clipPath><clipPath id="1f1670458b"><rect x="0" width="157" y="0" height="136"/></clipPath><clipPath id="6f20fcd16e"><path d="M 270.898438 450.359375 L 462.863281 450.359375 L 462.863281 623.394531 L 270.898438 623.394531 Z M 270.898438 450.359375 " clip-rule="nonzero"/></clipPath><clipPath id="4eda51044a"><path d="M 366.621094 450.359375 C 313.753906 450.359375 270.898438 489.09375 270.898438 536.878906 C 270.898438 584.660156 313.753906 623.398438 366.621094 623.398438 C 419.488281 623.398438 462.34375 584.660156 462.34375 536.878906 C 462.34375 489.09375 419.488281 450.359375 366.621094 450.359375 Z M 366.621094 450.359375 " clip-rule="nonzero"/></clipPath><clipPath id="2b780bdf3e"><path d="M 0.898438 0.359375 L 192.480469 0.359375 L 192.480469 173.394531 L 0.898438 173.394531 Z M 0.898438 0.359375 " clip-rule="nonzero"/></clipPath><clipPath id="89ff71790c"><path d="M 96.621094 0.359375 C 43.753906 0.359375 0.898438 39.09375 0.898438 86.878906 C 0.898438 134.660156 43.753906 173.398438 96.621094 173.398438 C 149.488281 173.398438 192.34375 134.660156 192.34375 86.878906 C 192.34375 39.09375 149.488281 0.359375 96.621094 0.359375 Z M 96.621094 0.359375 " clip-rule="nonzero"/></clipPath><clipPath id="34b4e92e4e"><rect x="0" width="193" y="0" height="174"/></clipPath><clipPath id="f241686abc"><path d="M 335 96 L 567 96 L 567 499 L 335 499 Z M 335 96 " clip-rule="nonzero"/></clipPath><clipPath id="d72535a19b"><path d="M 108.929688 203.375 L 587.023438 2.804688 L 787.59375 480.894531 L 309.5 681.464844 Z M 108.929688 203.375 " clip-rule="nonzero"/></clipPath><clipPath id="c23a0a931c"><path d="M 108.929688 203.375 L 587.023438 2.804688 L 787.59375 480.894531 L 309.5 681.464844 Z M 108.929688 203.375 " clip-rule="nonzero"/></clipPath><clipPath id="04825095b5"><path d="M 256 388 L 329 388 L 329 485 L 256 485 Z M 256 388 " clip-rule="nonzero"/></clipPath><clipPath id="9eda08ede3"><path d="M 108.929688 203.375 L 587.023438 2.804688 L 787.59375 480.894531 L 309.5 681.464844 Z M 108.929688 203.375 " clip-rule="nonzero"/></clipPath><clipPath id="91d6434cc6"><path d="M 108.929688 203.375 L 587.023438 2.804688 L 787.59375 480.894531 L 309.5 681.464844 Z M 108.929688 203.375 " clip-rule="nonzero"/></clipPath><clipPath id="d3d9fb459a"><path d="M 457 459 L 527 459 L 527 576 L 457 576 Z M 457 459 " clip-rule="nonzero"/></clipPath><clipPath id="36ab0b5d8d"><path d="M 108.929688 203.375 L 587.023438 2.804688 L 787.59375 480.894531 L 309.5 681.464844 Z M 108.929688 203.375 " clip-rule="nonzero"/></clipPath><clipPath id="2a7a3e27ae"><path d="M 108.929688 203.375 L 587.023438 2.804688 L 787.59375 480.894531 L 309.5 681.464844 Z M 108.929688 203.375 " clip-rule="nonzero"/></clipPath><clipPath id="6c61c0d754"><path d="M 332 480 L 407 480 L 407 611 L 332 611 Z M 332 480 " clip-rule="nonzero"/></clipPath><clipPath id="17f45932e6"><path d="M 108.929688 203.375 L 587.023438 2.804688 L 787.59375 480.894531 L 309.5 681.464844 Z M 108.929688 203.375 " clip-rule="nonzero"/></clipPath><clipPath id="c8a6db7f3e"><path d="M 108.929688 203.375 L 587.023438 2.804688 L 787.59375 480.894531 L 309.5 681.464844 Z M 108.929688 203.375 " clip-rule="nonzero"/></clipPath><clipPath id="ca8b90b08a"><rect x="0" width="354" y="0" height="138"/></clipPath><clipPath id="95c0fc2618"><path d="M 123.851562 56.125 L 256.324219 56.125 L 256.324219 211.886719 L 123.851562 211.886719 Z M 123.851562 56.125 " clip-rule="nonzero"/></clipPath><clipPath id="38aee29b7c"><path d="M 190.089844 56.125 L 211.164062 109.144531 L 256.324219 133.886719 L 211.164062 158.632812 L 190.089844 211.652344 L 169.011719 158.632812 L 123.851562 133.886719 L 169.011719 109.144531 Z M 190.089844 56.125 " clip-rule="nonzero"/></clipPath><clipPath id="fb686c5fb1"><path d="M 0.851562 0.125 L 133.324219 0.125 L 133.324219 155.679688 L 0.851562 155.679688 Z M 0.851562 0.125 " clip-rule="nonzero"/></clipPath><clipPath id="845246ff1b"><path d="M 67.089844 0.125 L 88.164062 53.144531 L 133.324219 77.886719 L 88.164062 102.632812 L 67.089844 155.652344 L 46.011719 102.632812 L 0.851562 77.886719 L 46.011719 53.144531 Z M 67.089844 0.125 " clip-rule="nonzero"/></clipPath><clipPath id="5336460d3b"><rect x="0" width="134" y="0" height="156"/></clipPath><clipPath id="76a0a1335a"><path d="M 592.492188 323.125 L 724.964844 323.125 L 724.964844 478.882812 L 592.492188 478.882812 Z M 592.492188 323.125 " clip-rule="nonzero"/></clipPath><clipPath id="c723a640cb"><path d="M 658.726562 323.125 L 679.804688 376.144531 L 724.964844 400.886719 L 679.804688 425.632812 L 658.726562 478.652344 L 637.652344 425.632812 L 592.492188 400.886719 L 637.652344 376.144531 Z M 658.726562 323.125 " clip-rule="nonzero"/></clipPath><clipPath id="bd6adb87c6"><path d="M 0.492188 0.125 L 132.964844 0.125 L 132.964844 155.800781 L 0.492188 155.800781 Z M 0.492188 0.125 " clip-rule="nonzero"/></clipPath><clipPath id="0244d4e3b4"><path d="M 66.726562 0.125 L 87.804688 53.144531 L 132.964844 77.886719 L 87.804688 102.632812 L 66.726562 155.652344 L 45.652344 102.632812 L 0.492188 77.886719 L 45.652344 53.144531 Z M 66.726562 0.125 " clip-rule="nonzero"/></clipPath><clipPath id="1f290d12c4"><rect x="0" width="133" y="0" height="156"/></clipPath><clipPath id="c88f6ca042"><rect x="0" width="810" y="0" height="810"/></clipPath></defs><rect x="-81" width="972" fill="#ffffff" y="-80.999999" height="971.999992" fill-opacity="1"/><rect x="-81" width="972" fill="#ffffff" y="-80.999999" height="971.999992" fill-opacity="1"/><g transform="matrix(1, 0, 0, 1, 0, 0.000000000000039746)"><g clip-path="url(#c88f6ca042)"><g clip-path="url(#2dd91ea288)"><g transform="matrix(1, 0, 0, 1, 0, 0.000000000000039746)"><g clip-path="url(#f4b47c7dd3)"><g clip-path="url(#c9e937e025)"><path fill="#86e21d" d="M 0 0 L 808.972656 0 L 808.972656 903.773438 L 0 903.773438 Z M 0 0 " fill-opacity="1" fill-rule="nonzero"/></g></g></g></g><g clip-path="url(#c492f5d7bc)"><g clip-path="url(#99ab7697c1)"><g transform="matrix(1, 0, 0, 1, 0, 545)"><g clip-path="url(#56de573112)"><g clip-path="url(#4b6b1d86d2)"><g clip-path="url(#869cd5abf7)"><path fill="#5cc202" d="M 0 0.925781 L 808.734375 0.925781 L 808.734375 265 L 0 265 Z M 0 0.925781 " fill-opacity="1" fill-rule="nonzero"/></g></g></g></g></g></g><g clip-path="url(#9a0f419e99)"><g clip-path="url(#5f12e43577)"><g transform="matrix(1, 0, 0, 1, 74, 571)"><g clip-path="url(#ac1cc20430)"><g clip-path="url(#81fb89c763)"><g clip-path="url(#3922b2b829)"><path fill="#5cc202" d="M 0.9375 0.515625 L 135.101562 0.515625 L 135.101562 109.203125 L 0.9375 109.203125 Z M 0.9375 0.515625 " fill-opacity="1" fill-rule="nonzero"/></g></g></g></g></g></g><g clip-path="url(#4dda3e137b)"><g clip-path="url(#0e7f24dd37)"><g transform="matrix(1, 0, 0, 1, 325, 459)"><g clip-path="url(#1eac9026a6)"><g clip-path="url(#819555de24)"><g clip-path="url(#6817c0aa00)"><path fill="#5cc202" d="M 0.980469 0.40625 L 192.269531 0.40625 L 192.269531 173.441406 L 0.980469 173.441406 Z M 0.980469 0.40625 " fill-opacity="1" fill-rule="nonzero"/></g></g></g></g></g></g><g clip-path="url(#ab5403dbc4)"><g clip-path="url(#e2524dfd63)"><g transform="matrix(1, 0, 0, 1, 134, 496)"><g clip-path="url(#15af212567)"><g clip-path="url(#1a956ce4e0)"><g clip-path="url(#ecb9be5276)"><path fill="#5cc202" d="M 0.535156 0.601562 L 191.820312 0.601562 L 191.820312 173.640625 L 0.535156 173.640625 Z M 0.535156 0.601562 " fill-opacity="1" fill-rule="nonzero"/></g></g></g></g></g></g><g clip-path="url(#a7e6553841)"><g clip-path="url(#d953384b10)"><g transform="matrix(1, 0, 0, 1, 477, 516)"><g clip-path="url(#ea24f5728e)"><g clip-path="url(#daa6336bc3)"><g clip-path="url(#b47044cec9)"><path fill="#5cc202" d="M 0.898438 0.964844 L 207.492188 0.964844 L 207.492188 187.847656 L 0.898438 187.847656 Z M 0.898438 0.964844 " fill-opacity="1" fill-rule="nonzero"/></g></g></g></g></g></g><g clip-path="url(#b895e0110e)"><g clip-path="url(#ad358e35cb)"><g transform="matrix(1, 0, 0, 1, 606, 602)"><g clip-path="url(#1f1670458b)"><g clip-path="url(#55980fbcd9)"><g clip-path="url(#2989addaee)"><path fill="#5cc202" d="M 0.449219 0.0820312 L 156.667969 0.0820312 L 156.667969 135.195312 L 0.449219 135.195312 Z M 0.449219 0.0820312 " fill-opacity="1" fill-rule="nonzero"/></g></g></g></g></g></g><g clip-path="url(#6f20fcd16e)"><g clip-path="url(#4eda51044a)"><g transform="matrix(1, 0, 0, 1, 270, 450)"><g clip-path="url(#34b4e92e4e)"><g clip-path="url(#2b780bdf3e)"><g clip-path="url(#89ff71790c)"><path fill="#5cc202" d="M 0.898438 0.359375 L 192.1875 0.359375 L 192.1875 173.394531 L 0.898438 173.394531 Z M 0.898438 0.359375 " fill-opacity="1" fill-rule="nonzero"/></g></g></g></g></g></g><g clip-path="url(#f241686abc)"><g clip-path="url(#d72535a19b)"><g clip-path="url(#c23a0a931c)"><path fill="#369931" d="M 549.683594 96.097656 C 503.496094 128.371094 396.550781 202.640625 359.359375 292.667969 C 334.34375 353.332031 327.871094 416.75 343.824219 458.265625 L 440.125 498.03125 C 480.679688 479.800781 520.769531 430.328125 545.8125 369.769531 C 582.972656 279.734375 559.597656 151.679688 549.636719 96.210938 L 549.683594 96.09375 Z M 493.195312 232.871094 C 494.40625 233.371094 495.589844 233.929688 496.746094 234.542969 C 497.902344 235.160156 499.023438 235.832031 500.113281 236.558594 C 501.203125 237.285156 502.253906 238.0625 503.269531 238.890625 C 504.28125 239.722656 505.253906 240.597656 506.179688 241.523438 C 507.105469 242.449219 507.984375 243.417969 508.816406 244.429688 C 509.648438 245.441406 510.429688 246.488281 511.160156 247.578125 C 511.886719 248.667969 512.5625 249.789062 513.179688 250.941406 C 513.796875 252.097656 514.359375 253.277344 514.863281 254.488281 C 515.363281 255.695312 515.804688 256.929688 516.1875 258.179688 C 516.570312 259.433594 516.886719 260.703125 517.144531 261.984375 C 517.402344 263.269531 517.597656 264.5625 517.726562 265.867188 C 517.855469 267.171875 517.921875 268.476562 517.921875 269.785156 C 517.925781 271.097656 517.859375 272.402344 517.734375 273.707031 C 517.605469 275.007812 517.417969 276.304688 517.164062 277.589844 C 516.910156 278.875 516.59375 280.140625 516.214844 281.394531 C 515.835938 282.648438 515.394531 283.882812 514.894531 285.09375 C 514.394531 286.304688 513.835938 287.484375 513.222656 288.640625 C 512.605469 289.796875 511.933594 290.921875 511.207031 292.011719 C 510.480469 293.097656 509.703125 294.152344 508.875 295.164062 C 508.042969 296.175781 507.167969 297.148438 506.242188 298.074219 C 505.316406 299 504.347656 299.882812 503.335938 300.714844 C 502.324219 301.546875 501.277344 302.324219 500.1875 303.054688 C 499.097656 303.785156 497.976562 304.457031 496.824219 305.074219 C 495.667969 305.695312 494.488281 306.253906 493.277344 306.757812 C 492.070312 307.261719 490.835938 307.703125 489.585938 308.082031 C 488.332031 308.464844 487.0625 308.785156 485.78125 309.042969 C 484.496094 309.296875 483.203125 309.492188 481.898438 309.621094 C 480.59375 309.75 479.289062 309.816406 477.980469 309.816406 C 476.667969 309.820312 475.363281 309.757812 474.058594 309.628906 C 472.757812 309.503906 471.460938 309.3125 470.175781 309.058594 C 468.890625 308.804688 467.625 308.488281 466.371094 308.109375 C 465.117188 307.730469 463.882812 307.289062 462.671875 306.792969 C 461.460938 306.292969 460.28125 305.734375 459.125 305.117188 C 457.96875 304.5 456.84375 303.828125 455.753906 303.101562 C 454.664062 302.378906 453.613281 301.597656 452.601562 300.769531 C 451.589844 299.941406 450.617188 299.0625 449.691406 298.136719 C 448.761719 297.210938 447.882812 296.242188 447.050781 295.234375 C 446.21875 294.222656 445.441406 293.171875 444.710938 292.082031 C 443.980469 290.996094 443.308594 289.875 442.691406 288.71875 C 442.070312 287.566406 441.511719 286.382812 441.007812 285.171875 C 440.503906 283.964844 440.0625 282.734375 439.683594 281.480469 C 439.300781 280.226562 438.980469 278.960938 438.722656 277.675781 C 438.46875 276.390625 438.273438 275.097656 438.144531 273.792969 C 438.015625 272.492188 437.949219 271.183594 437.949219 269.875 C 437.945312 268.566406 438.007812 267.257812 438.136719 265.953125 C 438.261719 264.652344 438.453125 263.355469 438.707031 262.074219 C 438.960938 260.789062 439.277344 259.519531 439.65625 258.265625 C 440.035156 257.011719 440.472656 255.777344 440.972656 254.570312 C 441.472656 253.359375 442.03125 252.175781 442.648438 251.019531 C 443.265625 249.863281 443.9375 248.742188 444.660156 247.652344 C 445.386719 246.5625 446.167969 245.511719 446.996094 244.496094 C 447.824219 243.484375 448.703125 242.511719 449.628906 241.585938 C 450.554688 240.660156 451.523438 239.78125 452.53125 238.949219 C 453.542969 238.117188 454.59375 237.335938 455.683594 236.605469 C 456.769531 235.878906 457.890625 235.203125 459.046875 234.585938 C 460.199219 233.96875 461.382812 233.40625 462.589844 232.902344 C 463.800781 232.402344 465.03125 231.960938 466.285156 231.578125 C 467.539062 231.195312 468.804688 230.878906 470.089844 230.621094 C 471.375 230.363281 472.667969 230.167969 473.972656 230.039062 C 475.273438 229.910156 476.582031 229.84375 477.890625 229.84375 C 479.199219 229.839844 480.507812 229.90625 481.808594 230.03125 C 483.113281 230.160156 484.40625 230.347656 485.691406 230.601562 C 486.976562 230.855469 488.246094 231.171875 489.5 231.550781 C 490.753906 231.929688 491.984375 232.371094 493.195312 232.871094 Z M 493.195312 232.871094 " fill-opacity="1" fill-rule="nonzero"/></g></g></g><g clip-path="url(#04825095b5)"><g clip-path="url(#9eda08ede3)"><g clip-path="url(#91d6434cc6)"><path fill="#369931" d="M 327.84375 388.492188 C 256.074219 384.351562 250.464844 451.648438 259.695312 484.445312 C 282.757812 462.898438 298.671875 453.636719 328.863281 449.109375 C 327.65625 438.105469 326.070312 424.355469 326.214844 414.496094 C 326.355469 404.640625 327.335938 400.1875 327.84375 388.492188 Z M 327.84375 388.492188 " fill-opacity="1" fill-rule="evenodd"/></g></g></g><g clip-path="url(#d3d9fb459a)"><g clip-path="url(#36ab0b5d8d)"><g clip-path="url(#2a7a3e27ae)"><path fill="#369931" d="M 500.707031 459.871094 C 554.488281 507.570312 510.980469 559.222656 481.300781 575.949219 C 480.160156 544.410156 475.414062 526.617188 457.214844 502.109375 C 465.835938 495.164062 476.660156 486.539062 483.511719 479.449219 C 490.367188 472.363281 492.816406 468.515625 500.707031 459.871094 Z M 500.707031 459.871094 " fill-opacity="1" fill-rule="evenodd"/></g></g></g><g clip-path="url(#6c61c0d754)"><g clip-path="url(#17f45932e6)"><g clip-path="url(#c8a6db7f3e)"><path fill="#369931" d="M 337.316406 610.394531 C 334.101562 592.472656 326.542969 551.089844 338.550781 521.992188 C 346.652344 502.398438 359.628906 486.402344 372.746094 480.53125 L 403.863281 493.378906 C 408.992188 506.800781 406.894531 527.269531 398.820312 546.84375 C 386.804688 575.933594 352.257812 599.925781 337.332031 610.355469 Z M 337.316406 610.394531 " fill-opacity="1" fill-rule="nonzero"/></g></g></g><g transform="matrix(1, 0, 0, 1, 231, 623)"><g clip-path="url(#ca8b90b08a)"><g fill="#ffffff" fill-opacity="1"><g transform="translate(1.063264, 107.443389)"><g><path d="M 23.390625 0 L 9.28125 0 L 9.28125 -71.390625 L 23.390625 -71.390625 Z M 23.390625 0 "/></g></g></g><g fill="#ffffff" fill-opacity="1"><g transform="translate(33.77683, 107.443389)"><g><path d="M 7.765625 0 L 7.765625 -53.859375 L 20.75 -53.859375 L 20.75 -45.953125 L 21.78125 -45.703125 C 25.132812 -51.828125 30.570312 -54.890625 38.09375 -54.890625 C 44.300781 -54.890625 48.863281 -53.195312 51.78125 -49.8125 C 54.695312 -46.425781 56.15625 -41.492188 56.15625 -35.015625 L 56.15625 0 L 42.625 0 L 42.625 -33.34375 C 42.625 -36.925781 41.90625 -39.503906 40.46875 -41.078125 C 39.039062 -42.660156 36.75 -43.453125 33.59375 -43.453125 C 29.71875 -43.453125 26.695312 -42.195312 24.53125 -39.6875 C 22.375 -37.1875 21.296875 -33.25 21.296875 -27.875 L 21.296875 0 Z M 7.765625 0 "/></g></g></g><g fill="#ffffff" fill-opacity="1"><g transform="translate(96.860304, 107.443389)"><g><path d="M 14.5 -60.296875 C 12.0625 -60.296875 10.078125 -61.035156 8.546875 -62.515625 C 7.015625 -64.003906 6.25 -65.921875 6.25 -68.265625 C 6.25 -70.578125 7.015625 -72.472656 8.546875 -73.953125 C 10.078125 -75.429688 12.0625 -76.171875 14.5 -76.171875 C 16.125 -76.171875 17.570312 -75.828125 18.84375 -75.140625 C 20.113281 -74.460938 21.097656 -73.53125 21.796875 -72.34375 C 22.503906 -71.15625 22.859375 -69.796875 22.859375 -68.265625 C 22.859375 -66.734375 22.503906 -65.363281 21.796875 -64.15625 C 21.097656 -62.957031 20.113281 -62.015625 18.84375 -61.328125 C 17.570312 -60.640625 16.125 -60.296875 14.5 -60.296875 Z M 7.765625 0 L 7.765625 -53.859375 L 21.296875 -53.859375 L 21.296875 0 Z M 7.765625 0 "/></g></g></g><g fill="#ffffff" fill-opacity="1"><g transform="translate(125.863078, 107.443389)"><g><path d="M 37.15625 -12.84375 L 40.671875 -2.828125 C 39.210938 -1.628906 37.375 -0.6875 35.15625 0 C 32.945312 0.6875 30.441406 1.03125 27.640625 1.03125 C 21.804688 1.03125 17.375 -0.554688 14.34375 -3.734375 C 11.320312 -6.910156 9.8125 -11.523438 9.8125 -17.578125 L 9.8125 -43.171875 L 1.609375 -43.171875 L 1.609375 -53.90625 L 9.8125 -53.90625 L 9.8125 -64.40625 L 23.34375 -66.609375 L 23.34375 -53.90625 L 38.625 -53.90625 L 38.625 -43.171875 L 23.34375 -43.171875 L 23.34375 -18.5625 C 23.34375 -15.882812 23.894531 -13.9375 25 -12.71875 C 26.101562 -11.5 27.710938 -10.890625 29.828125 -10.890625 C 32.242188 -10.890625 34.347656 -11.539062 36.140625 -12.84375 Z M 37.15625 -12.84375 "/></g></g></g><g fill="#ffffff" fill-opacity="1"><g transform="translate(167.707153, 107.443389)"><g><path d="M 14.5 -60.296875 C 12.0625 -60.296875 10.078125 -61.035156 8.546875 -62.515625 C 7.015625 -64.003906 6.25 -65.921875 6.25 -68.265625 C 6.25 -70.578125 7.015625 -72.472656 8.546875 -73.953125 C 10.078125 -75.429688 12.0625 -76.171875 14.5 -76.171875 C 16.125 -76.171875 17.570312 -75.828125 18.84375 -75.140625 C 20.113281 -74.460938 21.097656 -73.53125 21.796875 -72.34375 C 22.503906 -71.15625 22.859375 -69.796875 22.859375 -68.265625 C 22.859375 -66.734375 22.503906 -65.363281 21.796875 -64.15625 C 21.097656 -62.957031 20.113281 -62.015625 18.84375 -61.328125 C 17.570312 -60.640625 16.125 -60.296875 14.5 -60.296875 Z M 7.765625 0 L 7.765625 -53.859375 L 21.296875 -53.859375 L 21.296875 0 Z M 7.765625 0 "/></g></g></g><g fill="#ffffff" fill-opacity="1"><g transform="translate(196.709926, 107.443389)"><g><path d="M 21 1.03125 C 17.550781 1.03125 14.554688 0.394531 12.015625 -0.875 C 9.472656 -2.144531 7.519531 -4.007812 6.15625 -6.46875 C 4.789062 -8.925781 4.109375 -11.878906 4.109375 -15.328125 C 4.109375 -18.523438 4.789062 -21.203125 6.15625 -23.359375 C 7.519531 -25.523438 9.632812 -27.300781 12.5 -28.6875 C 15.363281 -30.070312 19.109375 -31.140625 23.734375 -31.890625 C 26.953125 -32.410156 29.398438 -32.976562 31.078125 -33.59375 C 32.753906 -34.207031 33.882812 -34.90625 34.46875 -35.6875 C 35.0625 -36.46875 35.359375 -37.460938 35.359375 -38.671875 C 35.359375 -40.398438 34.753906 -41.71875 33.546875 -42.625 C 32.335938 -43.539062 30.335938 -44 27.546875 -44 C 24.546875 -44 21.691406 -43.328125 18.984375 -41.984375 C 16.285156 -40.648438 13.945312 -38.894531 11.96875 -36.71875 L 10.984375 -36.71875 L 5.328125 -45.265625 C 8.054688 -48.296875 11.390625 -50.65625 15.328125 -52.34375 C 19.265625 -54.039062 23.5625 -54.890625 28.21875 -54.890625 C 35.351562 -54.890625 40.515625 -53.375 43.703125 -50.34375 C 46.890625 -47.3125 48.484375 -43.015625 48.484375 -37.453125 L 48.484375 -14.0625 C 48.484375 -11.65625 49.539062 -10.453125 51.65625 -10.453125 C 52.46875 -10.453125 53.265625 -10.597656 54.046875 -10.890625 L 54.734375 -10.6875 L 55.71875 -1.265625 C 54.96875 -0.773438 53.925781 -0.375 52.59375 -0.0625 C 51.257812 0.238281 49.789062 0.390625 48.1875 0.390625 C 44.96875 0.390625 42.453125 -0.226562 40.640625 -1.46875 C 38.835938 -2.707031 37.546875 -4.644531 36.765625 -7.28125 L 35.75 -7.375 C 33.101562 -1.769531 28.1875 1.03125 21 1.03125 Z M 25.296875 -9.078125 C 28.421875 -9.078125 30.914062 -10.125 32.78125 -12.21875 C 34.65625 -14.320312 35.59375 -17.25 35.59375 -21 L 35.59375 -26.46875 L 34.671875 -26.65625 C 33.859375 -26.007812 32.789062 -25.460938 31.46875 -25.015625 C 30.15625 -24.578125 28.257812 -24.148438 25.78125 -23.734375 C 22.851562 -23.242188 20.742188 -22.40625 19.453125 -21.21875 C 18.171875 -20.03125 17.53125 -18.34375 17.53125 -16.15625 C 17.53125 -13.851562 18.210938 -12.097656 19.578125 -10.890625 C 20.941406 -9.679688 22.847656 -9.078125 25.296875 -9.078125 Z M 25.296875 -9.078125 "/></g></g></g><g fill="#ffffff" fill-opacity="1"><g transform="translate(252.860066, 107.443389)"><g><path d="M 37.15625 -12.84375 L 40.671875 -2.828125 C 39.210938 -1.628906 37.375 -0.6875 35.15625 0 C 32.945312 0.6875 30.441406 1.03125 27.640625 1.03125 C 21.804688 1.03125 17.375 -0.554688 14.34375 -3.734375 C 11.320312 -6.910156 9.8125 -11.523438 9.8125 -17.578125 L 9.8125 -43.171875 L 1.609375 -43.171875 L 1.609375 -53.90625 L 9.8125 -53.90625 L 9.8125 -64.40625 L 23.34375 -66.609375 L 23.34375 -53.90625 L 38.625 -53.90625 L 38.625 -43.171875 L 23.34375 -43.171875 L 23.34375 -18.5625 C 23.34375 -15.882812 23.894531 -13.9375 25 -12.71875 C 26.101562 -11.5 27.710938 -10.890625 29.828125 -10.890625 C 32.242188 -10.890625 34.347656 -11.539062 36.140625 -12.84375 Z M 37.15625 -12.84375 "/></g></g></g><g fill="#ffffff" fill-opacity="1"><g transform="translate(294.069417, 107.443389)"><g><path d="M 53.21875 -23.875 L 18.609375 -23.875 C 18.992188 -19.1875 20.328125 -15.773438 22.609375 -13.640625 C 24.890625 -11.515625 28 -10.453125 31.9375 -10.453125 C 35.03125 -10.453125 37.535156 -11.03125 39.453125 -12.1875 C 41.367188 -13.34375 42.914062 -15.09375 44.09375 -17.4375 L 45.125 -17.4375 L 54.109375 -11.671875 C 52.347656 -7.890625 49.691406 -4.828125 46.140625 -2.484375 C 42.597656 -0.140625 37.863281 1.03125 31.9375 1.03125 C 26.363281 1.03125 21.550781 -0.0234375 17.5 -2.140625 C 13.445312 -4.265625 10.320312 -7.414062 8.125 -11.59375 C 5.925781 -15.78125 4.828125 -20.882812 4.828125 -26.90625 C 4.828125 -33.019531 5.984375 -38.175781 8.296875 -42.375 C 10.609375 -46.582031 13.734375 -49.71875 17.671875 -51.78125 C 21.609375 -53.851562 26.035156 -54.890625 30.953125 -54.890625 C 38.578125 -54.890625 44.414062 -52.867188 48.46875 -48.828125 C 52.519531 -44.796875 54.546875 -38.875 54.546875 -31.0625 C 54.546875 -28.226562 54.445312 -26.03125 54.25 -24.46875 Z M 41.609375 -32.625 C 41.472656 -36.71875 40.515625 -39.703125 38.734375 -41.578125 C 36.960938 -43.453125 34.367188 -44.390625 30.953125 -44.390625 C 24.117188 -44.390625 20.097656 -40.46875 18.890625 -32.625 Z M 41.609375 -32.625 "/></g></g></g></g></g><g clip-path="url(#95c0fc2618)"><g clip-path="url(#38aee29b7c)"><g transform="matrix(1, 0, 0, 1, 123, 56)"><g clip-path="url(#5336460d3b)"><g clip-path="url(#fb686c5fb1)"><g clip-path="url(#845246ff1b)"><path fill="#5cc202" d="M 0.851562 0.125 L 133.324219 0.125 L 133.324219 155.886719 L 0.851562 155.886719 Z M 0.851562 0.125 " fill-opacity="1" fill-rule="nonzero"/></g></g></g></g></g></g><g clip-path="url(#76a0a1335a)"><g clip-path="url(#c723a640cb)"><g transform="matrix(1, 0, 0, 1, 592, 323)"><g clip-path="url(#1f290d12c4)"><g clip-path="url(#bd6adb87c6)"><g clip-path="url(#0244d4e3b4)"><path fill="#5cc202" d="M 0.492188 0.125 L 132.964844 0.125 L 132.964844 155.882812 L 0.492188 155.882812 Z M 0.492188 0.125 " fill-opacity="1" fill-rule="nonzero"/></g></g></g></g></g></g></g></g></svg>