<svg xmlns="http://www.w3.org/2000/svg" xmlns:xlink="http://www.w3.org/1999/xlink" width="1080" zoomAndPan="magnify" viewBox="0 0 810 809.999993" height="1080" preserveAspectRatio="xMidYMid meet" version="1.0"><defs><g/><clipPath id="fc1531e892"><path d="M 0 0 L 808.925781 0 L 808.925781 810 L 0 810 Z M 0 0 " clip-rule="nonzero"/></clipPath><clipPath id="cf90eb3c88"><path d="M 0 0 L 808.925781 0 L 808.925781 809 L 0 809 Z M 0 0 " clip-rule="nonzero"/></clipPath><clipPath id="f9b55dabb3"><rect x="0" width="809" y="0" height="810"/></clipPath><clipPath id="4e40616aa7"><path d="M 22.796875 26.964844 L 783 26.964844 L 783 783.035156 L 22.796875 783.035156 Z M 22.796875 26.964844 " clip-rule="nonzero"/></clipPath><clipPath id="96ffd23670"><path d="M 402.609375 26.964844 C 192.847656 26.964844 22.796875 196.21875 22.796875 405 C 22.796875 613.78125 192.847656 783.035156 402.609375 783.035156 C 612.375 783.035156 782.421875 613.78125 782.421875 405 C 782.421875 196.21875 612.375 26.964844 402.609375 26.964844 Z M 402.609375 26.964844 " clip-rule="nonzero"/></clipPath><clipPath id="21b8815b86"><path d="M 0.796875 0.964844 L 760 0.964844 L 760 757.035156 L 0.796875 757.035156 Z M 0.796875 0.964844 " clip-rule="nonzero"/></clipPath><clipPath id="0eb583f022"><path d="M 380.609375 0.964844 C 170.847656 0.964844 0.796875 170.21875 0.796875 379 C 0.796875 587.78125 170.847656 757.035156 380.609375 757.035156 C 590.375 757.035156 760.421875 587.78125 760.421875 379 C 760.421875 170.21875 590.375 0.964844 380.609375 0.964844 Z M 380.609375 0.964844 " clip-rule="nonzero"/></clipPath><clipPath id="e90680e489"><rect x="0" width="761" y="0" height="758"/></clipPath><clipPath id="bf1e4eeaf5"><path d="M 163.265625 165 L 640 165 L 640 576 L 163.265625 576 Z M 163.265625 165 " clip-rule="nonzero"/></clipPath><clipPath id="b657ce59a1"><rect x="0" width="421" y="0" height="137"/></clipPath><clipPath id="2b1a259ba3"><rect x="0" width="810" y="0" height="810"/></clipPath></defs><rect x="-81" width="972" fill="#ffffff" y="-80.999999" height="971.999992" fill-opacity="1"/><rect x="-81" width="972" fill="#ffffff" y="-80.999999" height="971.999992" fill-opacity="1"/><g transform="matrix(1, 0, 0, 1, 0, 0.000000000000039746)"><g clip-path="url(#2b1a259ba3)"><g clip-path="url(#fc1531e892)"><g transform="matrix(1, 0, 0, 1, 0, 0.000000000000039746)"><g clip-path="url(#f9b55dabb3)"><g clip-path="url(#cf90eb3c88)"><path fill="#f16a64" d="M 0 0 L 808.925781 0 L 808.925781 808.925781 L 0 808.925781 Z M 0 0 " fill-opacity="1" fill-rule="nonzero"/></g></g></g></g><g clip-path="url(#4e40616aa7)"><g clip-path="url(#96ffd23670)"><g transform="matrix(1, 0, 0, 1, 22, 26)"><g clip-path="url(#e90680e489)"><g clip-path="url(#21b8815b86)"><g clip-path="url(#0eb583f022)"><path fill="#d63b1f" d="M 0.796875 0.964844 L 759.824219 0.964844 L 759.824219 757.035156 L 0.796875 757.035156 Z M 0.796875 0.964844 " fill-opacity="1" fill-rule="nonzero"/></g></g></g></g></g></g><g clip-path="url(#bf1e4eeaf5)"><path fill="#f16a64" d="M 495.660156 380.988281 C 479.464844 380.988281 466.339844 367.863281 466.339844 351.671875 C 466.339844 335.480469 479.464844 322.351562 495.660156 322.351562 C 511.851562 322.351562 524.976562 335.480469 524.976562 351.671875 C 524.976562 367.863281 511.851562 380.988281 495.660156 380.988281 Z M 397.929688 380.988281 C 381.738281 380.988281 368.613281 367.863281 368.613281 351.671875 C 368.613281 335.480469 381.738281 322.351562 397.929688 322.351562 C 414.125 322.351562 427.25 335.480469 427.25 351.671875 C 427.25 367.863281 414.125 380.988281 397.929688 380.988281 Z M 300.203125 380.988281 C 284.011719 380.988281 270.882812 367.863281 270.882812 351.671875 C 270.882812 335.480469 284.011719 322.351562 300.203125 322.351562 C 316.394531 322.351562 329.523438 335.480469 329.523438 351.671875 C 329.523438 367.863281 316.394531 380.988281 300.203125 380.988281 Z M 405.613281 165.917969 C 274.171875 163.328125 165.980469 244.324219 163.960938 346.824219 C 163.257812 382.457031 175.492188 416 197.261719 444.707031 L 197.253906 444.707031 C 234.691406 492.800781 193.828125 575.484375 193.828125 575.484375 L 314.46875 523.527344 C 340.457031 531.742188 368.699219 536.527344 398.296875 537.109375 C 529.734375 539.699219 637.929688 458.707031 639.945312 356.203125 C 641.96875 253.703125 537.054688 168.511719 405.613281 165.917969 " fill-opacity="1" fill-rule="evenodd"/></g><g transform="matrix(1, 0, 0, 1, 194, 597)"><g clip-path="url(#b657ce59a1)"><g fill="#ffffff" fill-opacity="1"><g transform="translate(0.737933, 106.691059)"><g><path d="M 23.390625 0 L 9.28125 0 L 9.28125 -71.390625 L 23.390625 -71.390625 Z M 23.390625 0 "/></g></g></g><g fill="#ffffff" fill-opacity="1"><g transform="translate(37.051488, 106.691059)"><g><path d="M 7.765625 0 L 7.765625 -53.859375 L 20.75 -53.859375 L 20.75 -45.953125 L 21.78125 -45.703125 C 25.132812 -51.828125 30.570312 -54.890625 38.09375 -54.890625 C 44.300781 -54.890625 48.863281 -53.195312 51.78125 -49.8125 C 54.695312 -46.425781 56.15625 -41.492188 56.15625 -35.015625 L 56.15625 0 L 42.625 0 L 42.625 -33.34375 C 42.625 -36.925781 41.90625 -39.503906 40.46875 -41.078125 C 39.039062 -42.660156 36.75 -43.453125 33.59375 -43.453125 C 29.71875 -43.453125 26.695312 -42.195312 24.53125 -39.6875 C 22.375 -37.1875 21.296875 -33.25 21.296875 -27.875 L 21.296875 0 Z M 7.765625 0 "/></g></g></g><g fill="#ffffff" fill-opacity="1"><g transform="translate(103.344339, 106.691059)"><g><path d="M 37.15625 -12.84375 L 40.671875 -2.828125 C 39.210938 -1.628906 37.375 -0.6875 35.15625 0 C 32.945312 0.6875 30.441406 1.03125 27.640625 1.03125 C 21.804688 1.03125 17.375 -0.554688 14.34375 -3.734375 C 11.320312 -6.910156 9.8125 -11.523438 9.8125 -17.578125 L 9.8125 -43.171875 L 1.609375 -43.171875 L 1.609375 -53.90625 L 9.8125 -53.90625 L 9.8125 -64.40625 L 23.34375 -66.609375 L 23.34375 -53.90625 L 38.625 -53.90625 L 38.625 -43.171875 L 23.34375 -43.171875 L 23.34375 -18.5625 C 23.34375 -15.882812 23.894531 -13.9375 25 -12.71875 C 26.101562 -11.5 27.710938 -10.890625 29.828125 -10.890625 C 32.242188 -10.890625 34.347656 -11.539062 36.140625 -12.84375 Z M 37.15625 -12.84375 "/></g></g></g><g fill="#ffffff" fill-opacity="1"><g transform="translate(148.153655, 106.691059)"><g><path d="M 53.21875 -23.875 L 18.609375 -23.875 C 18.992188 -19.1875 20.328125 -15.773438 22.609375 -13.640625 C 24.890625 -11.515625 28 -10.453125 31.9375 -10.453125 C 35.03125 -10.453125 37.535156 -11.03125 39.453125 -12.1875 C 41.367188 -13.34375 42.914062 -15.09375 44.09375 -17.4375 L 45.125 -17.4375 L 54.109375 -11.671875 C 52.347656 -7.890625 49.691406 -4.828125 46.140625 -2.484375 C 42.597656 -0.140625 37.863281 1.03125 31.9375 1.03125 C 26.363281 1.03125 21.550781 -0.0234375 17.5 -2.140625 C 13.445312 -4.265625 10.320312 -7.414062 8.125 -11.59375 C 5.925781 -15.78125 4.828125 -20.882812 4.828125 -26.90625 C 4.828125 -33.019531 5.984375 -38.175781 8.296875 -42.375 C 10.609375 -46.582031 13.734375 -49.71875 17.671875 -51.78125 C 21.609375 -53.851562 26.035156 -54.890625 30.953125 -54.890625 C 38.578125 -54.890625 44.414062 -52.867188 48.46875 -48.828125 C 52.519531 -44.796875 54.546875 -38.875 54.546875 -31.0625 C 54.546875 -28.226562 54.445312 -26.03125 54.25 -24.46875 Z M 41.609375 -32.625 C 41.472656 -36.71875 40.515625 -39.703125 38.734375 -41.578125 C 36.960938 -43.453125 34.367188 -44.390625 30.953125 -44.390625 C 24.117188 -44.390625 20.097656 -40.46875 18.890625 -32.625 Z M 41.609375 -32.625 "/></g></g></g><g fill="#ffffff" fill-opacity="1"><g transform="translate(210.296272, 106.691059)"><g><path d="M 7.765625 0 L 7.765625 -53.859375 L 20.90625 -53.859375 L 20.90625 -45.84375 L 21.921875 -45.65625 C 23.222656 -48.644531 24.929688 -50.835938 27.046875 -52.234375 C 29.160156 -53.640625 31.734375 -54.34375 34.765625 -54.34375 C 37.828125 -54.34375 40.15625 -53.820312 41.75 -52.78125 L 39.453125 -41.109375 L 38.421875 -40.921875 C 37.546875 -41.273438 36.703125 -41.53125 35.890625 -41.6875 C 35.078125 -41.851562 34.082031 -41.9375 32.90625 -41.9375 C 29.132812 -41.9375 26.253906 -40.609375 24.265625 -37.953125 C 22.285156 -35.304688 21.296875 -31.054688 21.296875 -25.203125 L 21.296875 0 Z M 7.765625 0 "/></g></g></g><g fill="#ffffff" fill-opacity="1"><g transform="translate(255.105589, 106.691059)"><g><path d="M 21 1.03125 C 17.550781 1.03125 14.554688 0.394531 12.015625 -0.875 C 9.472656 -2.144531 7.519531 -4.007812 6.15625 -6.46875 C 4.789062 -8.925781 4.109375 -11.878906 4.109375 -15.328125 C 4.109375 -18.523438 4.789062 -21.203125 6.15625 -23.359375 C 7.519531 -25.523438 9.632812 -27.300781 12.5 -28.6875 C 15.363281 -30.070312 19.109375 -31.140625 23.734375 -31.890625 C 26.953125 -32.410156 29.398438 -32.976562 31.078125 -33.59375 C 32.753906 -34.207031 33.882812 -34.90625 34.46875 -35.6875 C 35.0625 -36.46875 35.359375 -37.460938 35.359375 -38.671875 C 35.359375 -40.398438 34.753906 -41.71875 33.546875 -42.625 C 32.335938 -43.539062 30.335938 -44 27.546875 -44 C 24.546875 -44 21.691406 -43.328125 18.984375 -41.984375 C 16.285156 -40.648438 13.945312 -38.894531 11.96875 -36.71875 L 10.984375 -36.71875 L 5.328125 -45.265625 C 8.054688 -48.296875 11.390625 -50.65625 15.328125 -52.34375 C 19.265625 -54.039062 23.5625 -54.890625 28.21875 -54.890625 C 35.351562 -54.890625 40.515625 -53.375 43.703125 -50.34375 C 46.890625 -47.3125 48.484375 -43.015625 48.484375 -37.453125 L 48.484375 -14.0625 C 48.484375 -11.65625 49.539062 -10.453125 51.65625 -10.453125 C 52.46875 -10.453125 53.265625 -10.597656 54.046875 -10.890625 L 54.734375 -10.6875 L 55.71875 -1.265625 C 54.96875 -0.773438 53.925781 -0.375 52.59375 -0.0625 C 51.257812 0.238281 49.789062 0.390625 48.1875 0.390625 C 44.96875 0.390625 42.453125 -0.226562 40.640625 -1.46875 C 38.835938 -2.707031 37.546875 -4.644531 36.765625 -7.28125 L 35.75 -7.375 C 33.101562 -1.769531 28.1875 1.03125 21 1.03125 Z M 25.296875 -9.078125 C 28.421875 -9.078125 30.914062 -10.125 32.78125 -12.21875 C 34.65625 -14.320312 35.59375 -17.25 35.59375 -21 L 35.59375 -26.46875 L 34.671875 -26.65625 C 33.859375 -26.007812 32.789062 -25.460938 31.46875 -25.015625 C 30.15625 -24.578125 28.257812 -24.148438 25.78125 -23.734375 C 22.851562 -23.242188 20.742188 -22.40625 19.453125 -21.21875 C 18.171875 -20.03125 17.53125 -18.34375 17.53125 -16.15625 C 17.53125 -13.851562 18.210938 -12.097656 19.578125 -10.890625 C 20.941406 -9.679688 22.847656 -9.078125 25.296875 -9.078125 Z M 25.296875 -9.078125 "/></g></g></g><g fill="#ffffff" fill-opacity="1"><g transform="translate(315.490474, 106.691059)"><g><path d="M 31.390625 1.03125 C 26.179688 1.03125 21.578125 -0.0507812 17.578125 -2.21875 C 13.578125 -4.382812 10.453125 -7.566406 8.203125 -11.765625 C 5.953125 -15.960938 4.828125 -21.007812 4.828125 -26.90625 C 4.828125 -32.832031 5.953125 -37.894531 8.203125 -42.09375 C 10.453125 -46.289062 13.5625 -49.472656 17.53125 -51.640625 C 21.5 -53.804688 26.039062 -54.890625 31.15625 -54.890625 C 42.507812 -54.890625 49.785156 -50.769531 52.984375 -42.53125 L 43.703125 -35.890625 L 42.671875 -35.890625 C 41.566406 -38.429688 40.125 -40.316406 38.34375 -41.546875 C 36.570312 -42.785156 34.175781 -43.40625 31.15625 -43.40625 C 27.25 -43.40625 24.203125 -42.050781 22.015625 -39.34375 C 19.835938 -36.644531 18.75 -32.5 18.75 -26.90625 C 18.75 -21.375 19.851562 -17.25 22.0625 -14.53125 C 24.28125 -11.8125 27.390625 -10.453125 31.390625 -10.453125 C 34.328125 -10.453125 36.8125 -11.238281 38.84375 -12.8125 C 40.875 -14.394531 42.332031 -16.664062 43.21875 -19.625 L 44.234375 -19.734375 L 53.859375 -14.453125 C 52.492188 -9.898438 49.960938 -6.179688 46.265625 -3.296875 C 42.566406 -0.410156 37.609375 1.03125 31.390625 1.03125 Z M 31.390625 1.03125 "/></g></g></g><g fill="#ffffff" fill-opacity="1"><g transform="translate(374.605865, 106.691059)"><g><path d="M 37.15625 -12.84375 L 40.671875 -2.828125 C 39.210938 -1.628906 37.375 -0.6875 35.15625 0 C 32.945312 0.6875 30.441406 1.03125 27.640625 1.03125 C 21.804688 1.03125 17.375 -0.554688 14.34375 -3.734375 C 11.320312 -6.910156 9.8125 -11.523438 9.8125 -17.578125 L 9.8125 -43.171875 L 1.609375 -43.171875 L 1.609375 -53.90625 L 9.8125 -53.90625 L 9.8125 -64.40625 L 23.34375 -66.609375 L 23.34375 -53.90625 L 38.625 -53.90625 L 38.625 -43.171875 L 23.34375 -43.171875 L 23.34375 -18.5625 C 23.34375 -15.882812 23.894531 -13.9375 25 -12.71875 C 26.101562 -11.5 27.710938 -10.890625 29.828125 -10.890625 C 32.242188 -10.890625 34.347656 -11.539062 36.140625 -12.84375 Z M 37.15625 -12.84375 "/></g></g></g></g></g></g></g></svg>